<?xml version="1.0" encoding="utf-8"?>
<!-- Generator: Adobe Illustrator 16.0.0, SVG Export Plug-In . SVG Version: 6.00 Build 0)  -->
<!DOCTYPE svg PUBLIC "-//W3C//DTD SVG 1.1//EN" "http://www.w3.org/Graphics/SVG/1.1/DTD/svg11.dtd">
<svg version="1.1" xmlns="http://www.w3.org/2000/svg" xmlns:xlink="http://www.w3.org/1999/xlink" x="0px" y="0px"
	 width="24.729px" height="61.032px" viewBox="0 0 24.729 61.032" enable-background="new 0 0 24.729 61.032" xml:space="preserve">
<g id="fill">
	<rect x="8.062" y="24.078" fill="#999999" width="8.828" height="15.537"/>
</g>
<g id="basis">
	<path fill="#999999" d="M7.832,39.615C4.379,41.328,2,44.88,2,48.996c0,5.785,4.689,10.475,10.475,10.475
		c5.786,0,10.477-4.689,10.477-10.475c0-4.297-2.59-7.985-6.291-9.602"/>
	<path fill="none" stroke="#666666" stroke-miterlimit="10" d="M16.66,39.395V6.414C16.66,3.977,14.684,2,12.246,2
		S7.832,3.977,7.832,6.414v33.201C4.379,41.328,2,44.88,2,48.996c0,5.785,4.689,10.475,10.475,10.475
		c5.786,0,10.477-4.689,10.477-10.475C22.951,44.699,20.361,41.011,16.66,39.395z"/>
</g>
</svg>
