<?xml version="1.0" encoding="utf-8"?>
<!-- Generator: Adobe Illustrator 16.0.0, SVG Export Plug-In . SVG Version: 6.00 Build 0)  -->
<!DOCTYPE svg PUBLIC "-//W3C//DTD SVG 1.1//EN" "http://www.w3.org/Graphics/SVG/1.1/DTD/svg11.dtd">
<svg version="1.1" id="basis" xmlns="http://www.w3.org/2000/svg" xmlns:xlink="http://www.w3.org/1999/xlink" x="0px" y="0px"
	 width="24px" height="24px" viewBox="0 0 24 24" enable-background="new 0 0 24 24" xml:space="preserve">
<g>
	<rect x="-626.857" fill="#666666" width="33.451" height="11.803"/>
	<rect x="-626.857" y="23.079" fill="#666666" width="64" height="11.803"/>
	<rect x="-626.857" y="44.197" fill="#666666" width="64" height="11.803"/>
	<rect x="-584.087" fill="#666666" width="21.23" height="15.924"/>
</g>
<g>
	<path fill="#666666" d="M-526.795,0.908c-3.061,0-5.54,2.481-5.54,5.54c0,0.273,0.065,24.492,0.065,24.492h10.948
		c0,0,0.068-24.217,0.068-24.492C-521.253,3.389-523.734,0.908-526.795,0.908z M-522.374,29.479h-8.739V6.455h8.739V29.479z"/>
	<circle fill="#666666" cx="-526.795" cy="10.502" r="3.088"/>
	<circle fill="#666666" cx="-526.795" cy="17.908" r="3.087"/>
	<circle fill="#666666" cx="-526.795" cy="25.332" r="3.087"/>
	<polygon fill="#666666" points="-520.329,8.029 -520.329,13.591 -514.765,8.029 	"/>
	<polygon fill="#666666" points="-520.329,20.688 -514.765,15.127 -520.329,15.127 	"/>
	<polygon fill="#666666" points="-520.329,28.114 -514.765,22.55 -520.329,22.55 	"/>
	<polygon fill="#666666" points="-533.388,13.591 -533.388,8.029 -538.95,8.029 	"/>
	<polygon fill="#666666" points="-533.388,20.688 -533.388,15.127 -538.95,15.127 	"/>
	<polygon fill="#666666" points="-533.388,28.114 -533.388,22.55 -538.95,22.55 	"/>
</g>
<polygon fill="#666666" points="-463.745,13.022 -473.338,13.022 -473.338,3.43 -478.074,3.43 -478.074,13.022 -487.667,13.022 
	-487.667,17.76 -478.074,17.76 -478.074,27.352 -473.338,27.352 -473.338,17.76 -463.745,17.76 "/>
<path fill="#666666" d="M-411.753,14.067l-3.026-7.775c-0.137-0.47-0.582-1.051-1.303-1.051h-6.774h-6.775
	c-0.721,0-1.166,0.582-1.304,1.051l-3.026,7.775c-0.219,0.584-2.422,1.136-2.52,2.605v8.928c0,0.392,0.318,0.708,0.708,0.708h2.403
	c0.391,0,0.708-0.317,0.708-0.708v-1.982h19.61v1.982c0,0.392,0.316,0.708,0.708,0.708h2.402c0.392,0,0.708-0.317,0.708-0.708
	v-8.928C-409.33,15.204-411.535,14.652-411.753,14.067z M-430.445,18.556c0,0.391-0.317,0.709-0.708,0.709h-2.073
	c-0.392,0-0.708-0.318-0.708-0.709v-1.175c0-0.391,0.316-0.708,0.708-0.708h2.073c0.391,0,0.708,0.317,0.708,0.708V18.556z
	 M-432.547,14.012l2.796-6.81c0.206-0.306,0.502-0.612,1.123-0.612h5.771h5.771c0.619,0,0.916,0.307,1.122,0.612l2.796,6.81h-9.689
	H-432.547z M-411.792,18.556c0,0.391-0.315,0.709-0.708,0.709h-2.072c-0.392,0-0.709-0.318-0.709-0.709v-1.175
	c0-0.391,0.317-0.708,0.709-0.708h2.072c0.393,0,0.708,0.317,0.708,0.708V18.556z"/>
<g>
	<g>
		<path fill="#666666" d="M-361.324,2.546h-18.447c-0.453,0-0.821,0.368-0.821,0.822v20.807c0,0.453,0.368,0.821,0.821,0.821h18.447
			c0.454,0,0.822-0.368,0.822-0.821V3.368C-360.502,2.914-360.87,2.546-361.324,2.546z M-377.812,5.834
			c0-0.455,0.368-0.823,0.82-0.823h12.678c0.453,0,0.82,0.368,0.82,0.823v10c0,0.455-0.367,0.822-0.82,0.822h-12.678
			c-0.452,0-0.82-0.368-0.82-0.822V5.834z M-377.628,22.951c-0.885,0-1.602-0.716-1.602-1.601c0-0.883,0.717-1.599,1.602-1.599
			c0.882,0,1.599,0.716,1.599,1.599C-376.029,22.235-376.746,22.951-377.628,22.951z M-363.494,22.951
			c-0.883,0-1.599-0.716-1.599-1.601c0-0.883,0.716-1.599,1.599-1.599c0.886,0,1.602,0.716,1.602,1.599
			C-361.893,22.235-362.608,22.951-363.494,22.951z"/>
		<polygon fill="#666666" points="-359.884,30.399 -363.53,24.997 -365.601,24.997 -364.46,26.955 -376.699,26.955 -375.558,24.997 
			-377.628,24.997 -381.274,30.399 -378.704,30.399 -377.628,28.553 -377.628,28.554 -363.53,28.554 -362.453,30.399 		"/>
	</g>
</g>
<g>
	<path fill="#666666" d="M-306.837,9.646c0,0-1.633-0.328-2.608-0.095c-0.541,0.072-0.678,0.469-0.678,0.469
		c-0.05,0.136-0.025,0.335,0.032,0.571c0.024,0.086,0.045,0.175,0.067,0.263c0.234,0.83,0.395,1.92,0.224,3.581
		c-0.495,4.244-3.889,7.36-8.146,7.811v5.01h5.454v-4.5c0,0,3.878-3.556,4.765-5.09C-307.728,17.666-305.336,13.931-306.837,9.646z"
		/>
	<path fill="#666666" d="M-328.112,13.109c0-0.033,0.005-0.063,0.005-0.095c0.001-0.154,0.008-0.304,0.023-0.451
		c0.052-0.87,0.222-1.707,0.5-2.495c-0.004-0.016-0.002-0.035-0.008-0.048c0,0-0.137-0.396-0.678-0.469
		c-0.977-0.232-2.608,0.095-2.608,0.095c-1.501,4.285,0.891,8.019,0.891,8.019c0.887,1.534,4.765,5.09,4.765,5.09v4.5h5.454v-4.998
		C-324.44,21.826-328.112,17.892-328.112,13.109z"/>
	<path fill="#666666" d="M-310.516,12.732c0-4.66-3.778-8.437-8.438-8.437c-4.66,0-8.438,3.777-8.438,8.437s3.777,8.438,8.438,8.438
		C-314.294,21.17-310.516,17.393-310.516,12.732z M-315.781,7.644l0.604-0.404c0,0-0.255-0.648-0.212-0.967
		c0.147-0.071,0.741,0.24,1.244,0.768c-0.339,1.258-1.131,1.107-1.131,1.107S-315.858,8.135-315.781,7.644z M-320.867,15.073
		c-0.037,0.189-0.265,0.643-0.415,0.945s-0.227,0.414-0.415,0.565c-0.188,0.155-0.303,0.416-0.303,0.416l-0.037,0.642
		c0,0,0.073,0.53,0.187,0.72c0.113,0.187-0.403,1.313-0.403,1.313c-0.329-0.067-0.511-0.446-0.625-0.748
		c-0.114-0.304-0.265-0.462-0.227-0.801c0.039-0.34-0.295-0.519-0.406-0.709c-0.111-0.191-0.264-0.453-0.264-0.644
		c0-0.189-0.415-0.452-0.415-0.452s-0.756-0.341-0.869-0.492c-0.113-0.151-0.228-0.796-0.265-1.057
		c-0.036-0.263,0.113-0.942,0.113-0.942s0.306-0.23,0.113-0.417c-0.189-0.188-0.227-0.681-0.227-0.681l-0.341-0.376
		c0,0-0.265-0.375-0.3-0.566c-0.04-0.189,0-0.302,0.035-0.492c0.038-0.191-0.075-0.53-0.075-0.716
		c1.411-3.464,3.777-4.269,3.777-4.269l0.19,0.792c0,0-0.416,0.111-0.641,0.038c-0.228-0.076-0.342-0.076-0.342-0.076l-0.302,0.415
		c0,0-0.114,0.266-0.153,0.417c-0.037,0.15,0.074,0.377,0.074,0.377s0.531,0.039,0.531-0.114c0-0.151-0.075-0.224-0.075-0.224
		l-0.075-0.266c0,0,0.342-0.189,1.245-0.114c0.907,0.076,0.569,0.718,0.946,0.871c0.378,0.151-0.304,0.678-0.454,0.98
		s-0.378-0.379-0.378-0.379s0.228-0.26-0.15-0.338c-0.379-0.074-0.629,0.68-0.438,0.644c0.189-0.038,0.398,0.203,0.362,0.39
		c-0.039,0.189-0.039,0.175-0.229,0.591c-0.188,0.417-0.599,0.722-0.599,0.722s-0.192-0.118-0.081,0.109
		c0.116,0.226-0.037,0.757-0.037,0.905c0,0.151-0.453-0.263-0.527-0.641c-0.077-0.377-0.52-0.05-0.67-0.011
		c-0.153,0.039-0.428-0.066-0.501-0.253c-0.076-0.189-0.758,0.377-0.946,0.49c-0.189,0.112-0.112,0.415,0.188,0.267
		c0.303-0.155,0.566-0.04,0.492,0.265c-0.076,0.299-0.378,0.112-0.339,0.299c0.036,0.189,0.339,0.379,0.413,0.644
		c0.077,0.263,0.795,0.038,1.021-0.075c0.226-0.114,0.869-0.229,0.944,0.075c0.078,0.301,0.793,0.414,1.059,0.489
		c0.265,0.076,0.793,0.112,1.095,0.417C-320.301,14.318-320.828,14.883-320.867,15.073z M-319.169,6.234
		c-0.037,0.376-0.64,0.869-0.564,1.021c0.076,0.152,0,0.797-0.529,0.231c-0.529-0.567-1.06-0.759-1.02-1.139
		c0.009-0.075,0.547-0.196,0.556-0.327c0.801-0.746,2.08-0.591,2.177-0.417C-318.777,5.982-319.13,5.854-319.169,6.234z
		 M-314.535,18.561c-0.401-0.404-0.2-0.756-0.2-0.756l0.113-0.604l0.063-1.021c0,0,0-1.056-1.008-0.553
		c-1.082,0.274-0.632,0.274-1.727,0.352c-1.094,0.074-0.913-2.233-0.913-2.233c0-3.457,2.651-0.848,2.651-0.848
		c1.511,1.007,1.713-0.836,1.713-0.836l1.107-0.397l0.102-0.507l-0.161-0.704l-1.609-0.664c0,0-0.155,0.524,0.258,1.167
		c0,0-0.138,0.729-0.477,0.541l-0.933-0.469c0,0-0.314-0.136-0.818,0.167c-0.503,0.302-1.358-0.014-1.358-0.014
		s0.069-0.505,0.6-0.768l0.435-0.287c0,0-0.115-0.519-0.015-0.919c0.1-0.404,0.276-0.05,0.679-0.352
		c0.402-0.302,0.681,0.59,1.283,0.489c0.604-0.1,0.303-0.2,0.706-0.402c0.404-0.201,0.705,0.402,0.705,0.402l0.806,0.101
		c0,0-0.127-0.912-0.07-0.675c0.51,0.877,1.257,3.215,0.98,3.632c-0.166-0.074-0.306-0.136-0.306-0.136h-1.008l0.604,0.707
		c0,0,0.293,0.429,0.707,0.401C-311.898,16.532-314.535,18.561-314.535,18.561z"/>
</g>
<path fill-rule="evenodd" clip-rule="evenodd" fill="#666666" d="M-268,9.698c-0.401-1.263-0.772-2.436-1.143-3.605
	c-4.346,0.802-8.053,4.553-8.849,9.271c-0.928,5.48,1.956,10.462,6.636,12.637c4.862,2.26,10.236,0.895,13.566-2.792
	c3.386-3.748,4.557-9.953,0.126-15.573c0.615-0.483,1.25-0.947,1.84-1.459c0.295-0.255,0.486-0.21,0.694,0.059
	c1.566,2.04,2.615,4.286,3.077,6.85c0.47,2.606,0.196,5.113-0.756,7.517c-1.997,5.047-5.725,8.051-11.06,9.118
	c-3.229,0.646-6.262,0.041-9.132-1.38c-2.469-1.222-4.395-3.089-5.806-5.495c-1.417-2.415-2.154-5.019-2.052-7.78
	c0.133-3.513,1.319-6.668,3.733-9.321c1.818-1.999,3.984-3.402,6.572-4.16c0.473-0.138,0.618-0.336,0.413-0.855
	c-0.277-0.705-0.438-1.458-0.624-2.196c-0.04-0.155,0.023-0.336,0.04-0.507c0.147,0.015,0.305-0.002,0.438,0.049
	c2.159,0.844,4.313,1.7,6.474,2.546c0.443,0.175,0.611,0.494,0.348,0.878c-1.348,1.958-2.72,3.897-4.092,5.838
	C-267.63,9.443-267.763,9.509-268,9.698z"/>
<path fill-rule="evenodd" clip-rule="evenodd" fill="#666666" d="M-268.283,13.23c0,1.713,0,3.435,0,5.195c-0.22,0-0.403,0-0.656,0
	c0-1.017,0-2.015,0-3.014c-0.063-0.01-0.128-0.021-0.191-0.03c-0.142,0.605-0.285,1.209-0.422,1.814
	c-0.057,0.252-0.059,0.522-0.15,0.758c-0.075,0.191-0.251,0.342-0.381,0.51c-0.145-0.179-0.364-0.337-0.419-0.54
	c-0.174-0.643-0.279-1.304-0.425-1.956c-0.046-0.199-0.133-0.387-0.326-0.562c0,0.991,0,1.982,0,3.015
	c-0.253,0.017-0.44,0.03-0.674,0.045c0-1.763,0-3.482,0-5.254c0.311,0,0.626,0,1.017,0c0.238,1.206,0.486,2.445,0.731,3.685
	c0.042,0.008,0.084,0.016,0.126,0.024c0.062-0.182,0.147-0.36,0.181-0.547c0.146-0.808,0.289-1.617,0.407-2.429
	C-269.37,13.282-269.062,12.972-268.283,13.23z"/>
<path fill-rule="evenodd" clip-rule="evenodd" fill="#666666" d="M-261.207,18.441c-0.284,0-0.476,0-0.69,0
	c-0.148-0.53-0.273-1.072-0.464-1.59c-0.061-0.165-0.292-0.265-0.446-0.395c-0.101,0.156-0.276,0.306-0.289,0.47
	c-0.04,0.476-0.015,0.958-0.015,1.488c-0.24,0-0.439,0-0.665,0c0-1.743,0-3.46,0-5.249c0.487,0,0.944-0.042,1.392,0.01
	c0.564,0.067,1.021,0.342,0.979,0.995c-0.039,0.628-0.178,1.249-0.24,1.875c-0.028,0.286-0.011,0.586,0.047,0.867
	C-261.497,17.412-261.349,17.901-261.207,18.441z M-263.065,13.774c0,0.762,0,1.362,0,2.159c0.417-0.2,0.911-0.284,0.983-0.506
	c0.131-0.396,0.1-0.912-0.048-1.308C-262.199,13.931-262.694,13.9-263.065,13.774z"/>
<path fill-rule="evenodd" clip-rule="evenodd" fill="#666666" d="M-264.636,18.446c-0.314,0-0.486,0-0.687,0
	c-0.087-0.375-0.174-0.747-0.265-1.135c-0.289,0-0.549,0-0.788,0c-0.508,0.207,0.087,1.327-1.03,1.104
	c0.294-1.748,0.581-3.463,0.873-5.216c0.333,0,0.649,0,1.007,0C-265.233,14.927-264.941,16.645-264.636,18.446z M-265.965,14.583
	c-0.054-0.003-0.105-0.005-0.158-0.008c-0.096,0.636-0.191,1.273-0.291,1.947c0.288,0,0.507,0,0.781,0
	C-265.751,15.833-265.858,15.208-265.965,14.583z"/>
<path fill-rule="evenodd" clip-rule="evenodd" fill="#666666" d="M-275.22,17.026c0.193,0.146,0.464,0.251,0.563,0.446
	c0.213,0.419,0.543,0.57,0.898,0.357c0.381-0.228,0.434-0.661,0.146-1.019c-0.3-0.371-0.708-0.657-0.988-1.039
	c-0.274-0.372-0.566-0.798-0.638-1.234c-0.13-0.793,0.246-1.29,0.856-1.375c0.884-0.125,1.254,0.124,1.566,1.233
	c-0.352-0.171-0.575-0.278-0.798-0.389c-0.175-0.087-0.394-0.289-0.515-0.241c-0.18,0.071-0.443,0.371-0.404,0.479
	c0.156,0.443,0.332,0.937,0.655,1.252c0.542,0.53,1.091,1.021,1.059,1.844c-0.026,0.695-0.47,1.164-1.104,1.251
	c-0.573,0.078-1.113-0.293-1.337-0.924c-0.05-0.139-0.086-0.281-0.127-0.421C-275.331,17.173-275.275,17.1-275.22,17.026z"/>
<path fill-rule="evenodd" clip-rule="evenodd" fill="#666666" d="M-258.148,13.161c0,0.26,0,0.447,0,0.667
	c-0.285,0.023-0.541,0.045-0.856,0.071c0,1.493,0,2.974,0,4.524c-0.257,0.014-0.457,0.025-0.722,0.039c0-1.544,0-3.025,0-4.545
	c-0.224-0.022-0.409,0-0.551-0.068c-0.142-0.068-0.238-0.228-0.354-0.348c0.126-0.113,0.248-0.318,0.378-0.325
	C-259.579,13.143-258.899,13.161-258.148,13.161z"/>
<path fill-rule="evenodd" clip-rule="evenodd" fill="#666666" d="M-262.146,19.005c0.162,0.178,0.391,0.33,0.471,0.539
	c0.221,0.56,0.376,1.145,0.557,1.721c0.067-0.015,0.135-0.028,0.201-0.042c0-0.559-0.017-1.119,0.012-1.676
	c0.006-0.153,0.143-0.3,0.22-0.449c0.068,0.135,0.194,0.27,0.198,0.406c0.017,0.896,0.023,1.793-0.005,2.688
	c-0.005,0.163-0.191,0.32-0.293,0.479c-0.11-0.131-0.269-0.245-0.324-0.397c-0.213-0.589-0.394-1.189-0.586-1.786
	c-0.069,0.012-0.139,0.024-0.209,0.037c0,0.698,0,1.396,0,2.095c-0.07,0.023-0.141,0.047-0.209,0.071
	c-0.083-0.141-0.233-0.281-0.236-0.423c-0.021-1.026-0.011-2.051-0.011-3.076C-262.29,19.129-262.218,19.067-262.146,19.005z"/>
<path fill-rule="evenodd" clip-rule="evenodd" fill="#666666" d="M-272.583,20.856c0,0.328-0.036,0.662,0.017,0.981
	c0.023,0.146,0.221,0.263,0.34,0.394c0.127-0.12,0.266-0.23,0.381-0.364c0.104-0.122,0.183-0.268,0.272-0.403
	c0.058,0.168,0.201,0.372,0.151,0.496c-0.106,0.258-0.285,0.63-0.488,0.669c-0.287,0.056-0.892-0.131-0.898-0.245
	c-0.063-1.013-0.056-2.035,0.024-3.047c0.009-0.105,0.653-0.263,0.964-0.201c0.179,0.036,0.302,0.454,0.401,0.719
	c0.025,0.068-0.133,0.206-0.207,0.312c-0.071-0.087-0.145-0.173-0.213-0.262c-0.127-0.164-0.252-0.329-0.377-0.494
	c-0.123,0.197-0.306,0.381-0.357,0.596c-0.062,0.271-0.014,0.565-0.014,0.849H-272.583z"/>
<path fill-rule="evenodd" clip-rule="evenodd" fill="#666666" d="M-263.908,20.599c0.315,0.052,0.541,0.09,0.767,0.127
	c0.015,0.06,0.029,0.119,0.044,0.179c-0.242,0.093-0.485,0.187-0.77,0.296c0,0.286,0,0.607,0,0.999
	c0.211,0.014,0.425,0.002,0.624,0.051c0.138,0.033,0.254,0.149,0.38,0.228c-0.116,0.067-0.228,0.183-0.348,0.192
	c-0.344,0.026-0.691,0.009-1.084,0.009c0-1.203,0-2.351,0-3.5c0.486,0,0.963,0,1.439,0c0,0.041-0.001,0.08-0.001,0.12
	c-0.334,0.095-0.77,0.097-0.97,0.314C-263.994,19.797-263.891,20.231-263.908,20.599z"/>
<path fill-rule="evenodd" clip-rule="evenodd" fill="#666666" d="M-266.398,19.136c0.443,0,0.888,0,1.524,0
	c-0.359,1.021-0.706,2.003-1.042,2.962c0.124,0.078,0.158,0.107,0.197,0.122c0.249,0.095,0.499,0.187,0.75,0.279
	c-0.255,0.06-0.506,0.14-0.763,0.175c-0.21,0.03-0.427,0.007-0.841,0.007c0.397-1.125,0.754-2.134,1.126-3.184
	c-0.42-0.066-0.7-0.111-0.981-0.155C-266.418,19.272-266.408,19.204-266.398,19.136z"/>
<path fill-rule="evenodd" clip-rule="evenodd" fill="#666666" d="M-269.031,19.648c-0.307-0.161-0.507-0.266-0.708-0.371
	c0.01-0.041,0.02-0.082,0.029-0.123c0.525,0,1.049,0,1.573,0c-0.82,0.313-0.604,0.987-0.612,1.563
	c-0.007,0.502,0.005,1.004-0.004,1.505c-0.003,0.148-0.051,0.296-0.078,0.444c-0.066-0.003-0.133-0.008-0.2-0.011
	C-269.031,21.634-269.031,20.612-269.031,19.648z"/>
<path fill-rule="evenodd" clip-rule="evenodd" fill="#666666" d="M-267.062,20.858c0,0.502,0.014,1.004-0.01,1.504
	c-0.007,0.104-0.152,0.201-0.234,0.301c-0.062-0.096-0.18-0.192-0.182-0.289c-0.014-0.98-0.016-1.962,0-2.943
	c0.002-0.112,0.132-0.222,0.203-0.333c0.075,0.107,0.209,0.211,0.213,0.322C-267.048,19.899-267.062,20.379-267.062,20.858z"/>
<path fill-rule="evenodd" clip-rule="evenodd" fill="#666666" d="M-270.598,22.705c-0.062-0.131-0.179-0.262-0.181-0.395
	c-0.016-0.964-0.016-1.929,0.002-2.893c0.002-0.108,0.142-0.213,0.218-0.319c0.068,0.092,0.195,0.183,0.197,0.275
	c0.013,1.086,0.009,2.172,0.009,3.259C-270.435,22.657-270.517,22.681-270.598,22.705z"/>
<path fill="#666666" d="M-203.396,14.339c0.158-0.607,0.246-1.245,0.246-1.901c0-4.129-3.355-7.478-7.486-7.478
	c-4.779,0.007-5.417,3.643-5.417,3.643s-2.009-2.48-5.549-2.052c-3.187,0.635-5.271,3.503-5.271,6.428
	c0,0.503,0.073,0.983,0.201,1.453c-2.387,0.871-4.09,3.168-4.09,5.859c0,3.446,2.794,6.244,6.243,6.244h19.24
	c3.454,0,6.247-2.798,6.247-6.244C-199.031,17.496-200.867,15.134-203.396,14.339z M-206.423,25.286h-8.355
	c0.625-0.63,4.924-5.07,4.924-5.07s0.621-0.616-0.202-0.616c-0.822,0-2.132,0-2.132,0s0-0.357,0-0.902c0-1.683,0-4.963,0-6.217
	c0,0,0.008-0.294-0.37-0.294c-0.382,0-4.708,0-5.239,0c-0.533,0-0.439,0.351-0.439,0.351c0,1.291,0,4.46,0,6.205
	c0,0.607,0,1.004,0,1.004s-1.634,0-2.31,0s-0.055,0.588-0.055,0.588l5.089,4.951h-7.622c-3.002,0-5.425-2.362-5.425-5.275
	c0-2.272,1.477-4.213,3.553-4.949c-0.111-0.397-0.175-0.803-0.175-1.229c0-2.471,1.81-4.893,4.578-5.43
	c3.076-0.36,4.863,2.466,4.863,2.466s0.512-3.803,4.665-3.809c3.588,0,6.195,2.883,6.195,6.371c0,0.554-0.077,1.092-0.213,1.607
	c2.197,0.67,4.101,2.61,4.101,4.973C-200.992,22.924-203.419,25.286-206.423,25.286z"/>
<path fill="#666666" d="M-123.27,2.445V48h8.091V37.058h3.577V48h1.491V37.058h3.577V48h8.004V2.445H-123.27z M-116.84,42.64h-3.576
	v-5.582h3.576V42.64z M-116.84,35.206h-3.576v-5.582h3.576V35.206z M-116.84,27.426h-3.576v-5.582h3.576V27.426z M-116.84,19.142
	h-3.576v-5.581h3.576V19.142z M-116.707,11.621h-3.576V6.04h3.576V11.621z M-111.602,35.206h-3.577v-5.582h3.577V35.206z
	 M-111.602,27.426h-3.577v-5.582h3.577V27.426z M-111.602,19.142h-3.576v-5.581h3.576V19.142z M-111.469,11.621h-3.576V6.04h3.576
	V11.621z M-106.533,35.206h-3.577v-5.582h3.577V35.206z M-106.533,27.426h-3.577v-5.582h3.577V27.426z M-106.533,19.142h-3.577
	v-5.581h3.577V19.142z M-106.4,11.621h-3.576V6.04h3.576V11.621z M-101.383,42.64h-3.575v-5.582h3.575V42.64z M-101.383,35.206
	h-3.575v-5.582h3.575V35.206z M-101.383,27.426h-3.575v-5.582h3.575V27.426z M-101.382,19.142h-3.576v-5.581h3.576V19.142z
	 M-101.249,11.621h-3.576V6.04h3.576V11.621z"/>
<g>
	<path fill="#666666" d="M-165.631,19.989v0.101c0.421,1.435,1.144,2.534,2.167,3.294c1.024,0.761,2.287,1.142,3.79,1.142
		c1.713,0,3.421-0.531,5.124-1.594v3.273c-1.761,0.918-3.799,1.378-6.115,1.378c-0.87,0-1.693-0.072-2.469-0.215
		c-0.774-0.144-1.494-0.359-2.16-0.646c-0.664-0.287-1.271-0.644-1.822-1.069c-0.55-0.426-1.044-0.917-1.479-1.471
		c-0.436-0.555-0.854-1.275-1.256-2.161c-0.402-0.885-0.603-1.528-0.603-1.93v-0.101h-2.067l0.56-2.669h1.148
		c-0.02-0.172-0.028-0.426-0.028-0.761l0.028-0.948v-0.086h-1.708l0.56-2.67h1.536v-0.086c0.632-2.555,1.764-4.445,3.395-5.669
		c1.632-1.225,3.754-1.837,6.365-1.837c2.144,0,4.11,0.278,5.9,0.833v3.459c-2.134-0.919-3.967-1.378-5.498-1.378
		c-2.842,0-4.65,1.559-5.426,4.679h8.698l-0.53,2.67h-8.584v0.086c-0.019,0.182-0.029,0.459-0.029,0.833l0.029,0.79v0.086h8.254
		l-0.56,2.669H-165.631z"/>
</g>
<g>
	<path fill="#494949" d="M-484.016-31.925c-0.5,0.032-0.721,0.032-1.094,0.032c-0.314,0-0.721,0-1.176-0.032
		c-0.172,0.626-0.467,1.518-0.953,2.847c-0.406,1.126-0.656,2.049-0.783,2.957h-0.045c-0.203-1.143-0.361-1.611-0.861-2.957
		c-0.439-1.126-0.799-2.065-1.064-2.847c-0.516,0.032-0.672,0.032-1.141,0.032c-0.422,0-0.924,0-1.156-0.032
		c0.092,0.516,0.248,0.984,1.859,4.458c0.812,1.753,1.127,2.55,1.408,3.113c-0.268,0.423-0.422,0.75-0.781,1.58
		c-0.312,0.72-0.549,1.235-0.908,1.907c0.547-0.03,0.781-0.03,1.328-0.03c0.395,0,0.83,0.015,1.08,0.03
		c0.377-1.078,0.736-1.986,1.738-4.535C-484.971-29.47-484.188-31.253-484.016-31.925 M-492.855-29.876
		c-0.029-0.375-0.045-0.579-0.045-0.923c0-0.328,0-0.656,0.045-1.079c-0.436,0.062-1.891,0-2.314,0.142l-0.045-0.031
		c0.139-0.626,0.078-1.236,0.154-1.878c-0.578,0.125-1.295,0.171-1.893,0.188c0.031,0.469,0.031,1.394,0.143,1.69l-0.033,0.015
		c-0.373-0.11-1.281-0.077-1.768-0.125c0.033,0.297,0.047,0.625,0.047,1.033c0,0.421-0.014,0.578-0.047,0.969
		c0.395-0.046,1.189-0.031,1.689-0.203l0.047,0.032c-0.139,0.906-0.248,2.69-0.248,3.582c0,1.877,0.703,2.737,2.455,2.737
		c0.625,0,1.268-0.079,1.783-0.22c-0.033-0.328-0.078-0.688-0.078-0.985c0-0.312,0-0.578,0.014-0.812
		c-0.266,0.045-0.561,0.062-0.891,0.062c-1.143,0-1.281-0.188-1.281-1.455c0-0.876-0.094-2.377-0.188-2.894l0.045-0.062
		C-494.668-29.907-493.494-29.954-492.855-29.876 M-501.475-28.438c-0.5-0.062-1.125-0.093-1.703-0.093
		c-0.643,0-1.283,0.031-1.879,0.109c0-1.314,0.643-1.924,1.895-1.924C-501.912-30.345-501.475-29.829-501.475-28.438
		 M-499.533-27.17v-0.641c0-3.05-1.299-4.411-3.598-4.411c-2.395,0-3.863,1.767-3.863,4.301c0,2.676,1.609,4.239,4.191,4.239
		c1.25,0,2.205-0.282,2.754-0.72c-0.109-0.483-0.156-1.36-0.156-1.611c-0.609,0.346-1.551,0.471-2.533,0.471
		c-1.346,0-2.143-0.564-2.27-1.722c0.25,0.062,0.906,0.094,1.484,0.094H-499.533z M-508.764-31.925
		c-0.389,0.016-0.719,0.032-1.127,0.032c-0.469,0-0.67-0.017-1.094-0.032c0.033,1.267,0.078,2.784,0.078,4.192
		c0,1.141-0.031,2.534-0.031,3.864c0.408-0.016,0.643-0.031,1.047-0.031c0.408,0,0.674,0.016,1.082,0.031
		c-0.018-1.347-0.049-2.724-0.049-3.864C-508.857-29.141-508.809-30.548-508.764-31.925 M-508.605-33.504
		c-0.031-0.423-0.031-0.595-0.031-0.986c0-0.391,0.016-0.579,0.031-0.954c-0.391,0.017-0.768,0.031-1.299,0.031
		c-0.516,0-0.877-0.015-1.281-0.031c0.031,0.312,0.031,0.563,0.031,0.954c0,0.392,0,0.578-0.018,0.986
		c0.438-0.017,0.721-0.032,1.281-0.032C-509.326-33.536-508.982-33.521-508.605-33.504 M-512.533-31.284
		c-0.533-0.641-1.299-0.891-2.346-0.891c-2.582,0-4.178,1.799-4.178,4.191c0,2.456,1.596,4.302,4.131,4.302
		c0.904,0,1.719-0.297,2.268-0.828c-0.109-0.547-0.172-1.362-0.172-1.816c-0.562,0.471-1.174,0.659-1.986,0.659
		c-1.441,0-2.271-0.908-2.271-2.285c0-1.346,0.816-2.235,2.271-2.235c0.938,0,1.453,0.172,2.031,0.734
		C-512.736-30.204-512.658-30.876-512.533-31.284 M-522.342-27.967c0,1.392-0.688,2.471-2.064,2.471s-2.066-1.079-2.066-2.471
		c0-1.472,0.707-2.331,2.08-2.331C-523.016-30.298-522.342-29.438-522.342-27.967 M-520.402-27.967c0-2.597-1.643-4.255-4.004-4.255
		c-2.363,0-4.004,1.658-4.004,4.223c0,2.612,1.58,4.412,4.004,4.412S-520.402-25.387-520.402-27.967 M-529.803-26.326
		c0-1.281-0.641-1.907-2.127-2.173c-1.486-0.28-1.598-0.391-1.598-0.893c0-0.562,0.439-0.844,1.551-0.844
		c0.797,0,1.438,0.094,1.938,0.391c0.031-0.656,0.096-1.329,0.221-1.705c-0.576-0.469-1.406-0.625-2.266-0.625
		c-2.191,0-3.396,1.048-3.396,2.674c0,1.22,0.578,1.941,2.189,2.223c1.406,0.249,1.564,0.374,1.564,0.875
		c0,0.596-0.312,0.845-1.344,0.845c-0.738,0-1.408-0.142-1.988-0.39c-0.018,0.547-0.061,1.188-0.156,1.704
		c0.547,0.39,1.406,0.562,2.205,0.562C-531.008-23.682-529.803-24.636-529.803-26.326 M-542.441-29.641
		c-0.047,0.391-0.096,1.017-0.096,1.485c0,0.58,0.033,1.049,0.049,1.22c-0.281,0.439-0.797,0.705-1.658,0.705
		c-1.252,0-1.926-0.735-1.926-1.987c0-1.221,0.533-1.924,1.846-1.924C-543.334-30.142-542.801-29.97-542.441-29.641
		 M-540.453-31.925c-0.377,0.016-0.566,0.032-0.799,0.032c-0.221,0-0.486-0.017-0.783-0.032c-0.078,0.265-0.141,0.531-0.203,0.955
		l-0.047,0.029c-0.391-0.781-1.018-1.188-2.158-1.188c-2.207,0-3.615,1.487-3.615,3.911c0,2.253,1.502,3.848,3.645,3.848
		c1.018,0,1.676-0.641,1.926-1.267l0.029,0.016c-0.014,0.142-0.045,0.392-0.045,0.641v0.376c0,1.394-0.625,1.972-2.098,1.972
		c-0.625,0-1.203-0.062-1.719-0.22c-0.016,0.579-0.047,1.126-0.141,1.752c0.594,0.297,1.281,0.407,1.955,0.407
		c2.33,0,3.975-1.205,3.975-4.177v-3.302C-540.531-29.547-540.502-30.658-540.453-31.925 M-551.654-25.979
		c-0.312,0.438-0.736,0.641-1.486,0.641c-0.861,0-1.223-0.282-1.223-0.923c0-0.688,0.439-0.923,1.457-0.987
		c0.516-0.029,0.939-0.029,1.252-0.093V-25.979z M-549.512-23.868c-0.127-0.72-0.188-1.439-0.188-2.111v-2.957
		c0-2.27-1.064-3.254-3.428-3.254c-1.281,0-2.283,0.358-2.861,1.174c0.127,0.423,0.174,1.001,0.203,1.625l0.031,0.031
		c0.424-0.547,1.252-0.891,2.488-0.891c1.221,0,1.611,0.219,1.611,1.204v0.406h-0.391c-2.816,0-4.209,0.688-4.209,2.582
		c0,1.549,1.018,2.44,2.66,2.44c1.252,0,1.828-0.532,2.158-1.534h0.061c0.018,0.423,0.094,0.892,0.174,1.284
		c0.377-0.016,0.672-0.031,0.877-0.031C-550.059-23.899-549.764-23.884-549.512-23.868 M-559.883-25.979
		c-0.312,0.438-0.736,0.641-1.484,0.641c-0.861,0-1.221-0.282-1.221-0.923c0-0.688,0.438-0.923,1.455-0.987
		c0.514-0.029,0.938-0.029,1.25-0.093V-25.979z M-557.74-23.868c-0.125-0.72-0.188-1.439-0.188-2.111v-2.957
		c0-2.27-1.064-3.254-3.424-3.254c-1.285,0-2.285,0.358-2.863,1.174c0.125,0.423,0.172,1.001,0.203,1.625l0.031,0.031
		c0.422-0.547,1.252-0.891,2.486-0.891c1.221,0,1.611,0.219,1.611,1.204v0.406h-0.391c-2.814,0-4.209,0.688-4.209,2.582
		c0,1.549,1.018,2.44,2.662,2.44c1.25,0,1.828-0.532,2.158-1.534h0.061c0.016,0.423,0.096,0.892,0.174,1.284
		c0.375-0.016,0.67-0.031,0.875-0.031C-558.285-23.899-557.99-23.884-557.74-23.868 M-565.232-31.925
		c-0.453,0.047-0.609,0.032-1,0.032c-0.422,0-0.564,0-1.08-0.032c-0.141,0.735-0.469,1.769-0.703,2.706
		c-0.268,1.063-0.518,2.237-0.658,3.191h-0.047c-0.156-1.002-0.5-2.159-0.906-3.442c-0.393-1.188-0.674-2.002-0.861-2.455
		c-0.172,0.016-0.531,0.032-0.828,0.032s-0.658-0.017-0.83-0.032c-0.201,0.47-0.453,1.251-0.844,2.455
		c-0.391,1.269-0.752,2.504-0.908,3.442h-0.031c-0.141-0.923-0.375-1.972-0.672-3.191c-0.234-0.971-0.547-1.955-0.703-2.706
		c-0.424,0.032-0.674,0.032-1.113,0.032c-0.406,0-0.529,0-1.016-0.032c0,0.328,0.33,1.486,1.316,4.536
		c0.498,1.533,0.842,2.613,1.078,3.521c0.312-0.016,0.611-0.031,0.938-0.031c0.281,0,0.734,0.016,0.891,0.031
		c0.127-0.282,0.785-1.815,1.205-3.161c0.299-0.954,0.562-1.846,0.641-2.752h0.049c0.094,0.906,0.342,1.798,0.656,2.721
		c0.453,1.347,1.096,2.927,1.205,3.192c0.156-0.016,0.609-0.031,0.955-0.031c0.279,0,0.875,0.031,0.875,0.031
		c0.188-0.846,0.518-1.846,1.062-3.505C-565.607-30.407-565.232-31.644-565.232-31.925"/>
	<path fill="#494949" d="M-604.88-56.718c-12.139,0-21.978,9.84-21.978,21.977c0,12.138,9.839,21.978,21.978,21.978
		c12.136,0,21.976-9.84,21.976-21.978C-582.904-46.878-592.744-56.718-604.88-56.718z M-600.326-24.376l-0.045-6.95
		c-0.049-2.584-1.992-4.746-4.531-4.746s-4.486,2.162-4.486,4.746v6.95h-8.242l1.403-13.808l4.03-8.45l1.723,6.951l5.572-9.396
		l5.66,9.396l1.637-6.951l4.072,8.45l1.404,13.808H-600.326z"/>
</g>
<g>
	<g>
		<path fill="#666666" d="M-75.939,1.914v2.955c0.226-0.049,4.789-1.001,8.376,1.528V1L-75.939,1.914z"/>
		<polygon fill="#666666" points="-75.939,22.644 -67.563,21.729 -67.563,16.361 -75.939,16.929 		"/>
		<path fill="#666666" d="M-75.939,5.76v10.051l8.376-0.569V7.564C-70.925,4.759-75.885,5.748-75.939,5.76z"/>
		<path fill="#666666" d="M-66.343,8.817v6.564l0.047-0.229l8.33,1.73v-3.625c-0.319,0.017-0.626,0.027-0.91,0.027
			C-62.402,13.284-63.568,12.055-66.343,8.817z"/>
		<polygon fill="#666666" points="-66.343,21.729 -57.966,24.471 -57.966,18.021 -66.343,16.281 		"/>
		<path fill="#666666" d="M-65.935,7.887c3.161,3.698,4.008,4.682,7.969,4.466V3.741L-66.343,1v6.455
			c0.116,0.121,0.236,0.232,0.347,0.36L-65.935,7.887z"/>
		<polygon fill="#666666" points="-56.919,24.471 -48.539,22.644 -48.539,16.386 -56.919,18.038 		"/>
		<path fill="#666666" d="M-48.539,15.247v-4.318l-1.211,0.33c0.009,0.088,0.027,0.177,0.027,0.27c0,1.415-1.146,2.564-2.563,2.564
			c-1.038,0-1.93-0.623-2.329-1.509l-2.184,0.593c-0.042,0.004-0.078,0.006-0.12,0.009v3.716L-48.539,15.247z"/>
		<path fill="#666666" d="M-50.005,10.383l1.344-0.368l0.122-0.016V1.914l-8.38,1.828v8.527l2.088-0.569
			c-0.005-0.058-0.018-0.109-0.018-0.17c0-1.416,1.147-2.561,2.562-2.561C-51.285,8.968-50.429,9.546-50.005,10.383z"/>
		<path fill="#666666" d="M-67.563,6.396v1.168c0.307,0.254,0.6,0.526,0.873,0.845l0.061,0.074c0.1,0.116,0.193,0.221,0.287,0.334
			V7.455C-66.73,7.05-67.138,6.696-67.563,6.396z"/>
		<path fill="#666666" d="M-57.966,12.353v0.904c0.329-0.016,0.68-0.041,1.047-0.072v-0.917l-0.039,0.011
			C-57.318,12.312-57.648,12.334-57.966,12.353z"/>
		<circle fill="#666666" cx="-52.247" cy="11.525" r="1.24"/>
	</g>
</g>
<g>
	<path fill="#666666" d="M-75.881,29.93c0-0.773-0.029-1.379-0.059-1.983h1.166l0.059,1.195h0.047
		c0.407-0.696,1.09-1.348,2.316-1.348c0.985,0,1.742,0.605,2.06,1.468h0.029c0.23-0.424,0.53-0.726,0.833-0.954
		c0.44-0.333,0.911-0.515,1.607-0.515c0.982,0,2.424,0.636,2.424,3.18v4.301h-1.305v-4.134c0-1.423-0.528-2.256-1.59-2.256
		c-0.772,0-1.348,0.561-1.589,1.197c-0.062,0.196-0.107,0.422-0.107,0.665v4.528h-1.301v-4.392c0-1.166-0.518-1.999-1.529-1.999
		c-0.819,0-1.441,0.667-1.654,1.333c-0.073,0.181-0.104,0.424-0.104,0.65v4.408h-1.303V29.93z"/>
	<path fill="#666666" d="M-58.094,33.518c0,0.636,0.028,1.258,0.104,1.757h-1.195l-0.107-0.923h-0.045
		c-0.407,0.575-1.197,1.09-2.24,1.09c-1.484,0-2.241-1.045-2.241-2.105c0-1.772,1.576-2.741,4.405-2.727v-0.15
		c0-0.591-0.167-1.697-1.665-1.682c-0.696,0-1.408,0.197-1.923,0.545l-0.302-0.893c0.604-0.378,1.499-0.636,2.422-0.636
		c2.24,0,2.787,1.529,2.787,2.983V33.518z M-59.381,31.535c-1.453-0.03-3.105,0.227-3.105,1.649c0,0.88,0.575,1.273,1.242,1.273
		c0.97,0,1.59-0.606,1.803-1.227c0.044-0.151,0.061-0.303,0.061-0.424V31.535z"/>
	<path fill="#666666" d="M-55.943,30.338c0-0.939-0.028-1.696-0.058-2.392h1.182l0.074,1.256h0.031
		c0.53-0.894,1.408-1.408,2.604-1.408c1.786,0,3.12,1.5,3.12,3.71c0,2.635-1.621,3.938-3.347,3.938
		c-0.969,0-1.817-0.424-2.256-1.151h-0.032v3.982h-1.318V30.338z M-54.625,32.292c0,0.196,0.017,0.378,0.061,0.545
		c0.242,0.923,1.046,1.559,2.002,1.559c1.407,0,2.223-1.152,2.223-2.832c0-1.454-0.771-2.71-2.179-2.71
		c-0.908,0-1.772,0.637-2.017,1.635c-0.042,0.167-0.09,0.364-0.09,0.53V32.292z"/>
</g>
<path fill="#727272" d="M-613.821,97.79V86.213h-6.621v11.648l-0.172,0.004c-2.59,1.285-4.374,3.949-4.374,7.036
	c0,4.339,3.517,7.856,7.856,7.856c4.339,0,7.857-3.518,7.857-7.856C-609.275,101.748-611.141,99.041-613.821,97.79z"/>
<path fill="none" stroke="#666666" stroke-miterlimit="10" d="M-613.993,97.7V72.965c0-1.828-1.482-3.311-3.311-3.311
	s-3.311,1.482-3.311,3.311v24.9c-2.59,1.285-4.374,3.949-4.374,7.036c0,4.339,3.517,7.856,7.856,7.856
	c4.339,0,7.857-3.518,7.857-7.856C-609.275,101.679-611.217,98.912-613.993,97.7z"/>
<g>
	<polygon fill="#666666" points="-25.212,14.887 -32.959,10.482 -36,12.211 -25.212,18.347 -14.424,12.211 -17.465,10.482 	"/>
	<polygon fill="#666666" points="-25.212,19.947 -32.959,15.542 -36,17.271 -25.212,23.404 -14.424,17.271 -17.465,15.542 	"/>
	<polygon fill="#666666" points="-14.424,7.267 -25.212,1.132 -36,7.267 -25.212,13.4 	"/>
</g>
<g>
	<rect x="2.185" y="16.769" fill-rule="evenodd" clip-rule="evenodd" fill="#666666" width="3.62" height="6.014"/>
	<rect x="2.185" y="13.544" fill-rule="evenodd" clip-rule="evenodd" fill="#666666" width="3.62" height="2.149"/>
	<rect x="2.185" y="10.49" fill-rule="evenodd" clip-rule="evenodd" fill="#666666" width="3.62" height="2.149"/>
	<rect x="2.185" y="7.38" fill-rule="evenodd" clip-rule="evenodd" fill="#666666" width="3.62" height="2.149"/>
	<rect x="18.39" y="16.769" fill-rule="evenodd" clip-rule="evenodd" fill="#666666" width="3.619" height="6.014"/>
	<rect x="18.39" y="13.544" fill-rule="evenodd" clip-rule="evenodd" fill="#666666" width="3.619" height="2.149"/>
	<rect x="18.39" y="10.49" fill-rule="evenodd" clip-rule="evenodd" fill="#666666" width="3.619" height="2.149"/>
	<rect x="18.39" y="7.38" fill-rule="evenodd" clip-rule="evenodd" fill="#666666" width="3.619" height="2.149"/>
	<rect x="7.672" y="10.659" fill-rule="evenodd" clip-rule="evenodd" fill="#666666" width="3.619" height="12.123"/>
	<rect x="7.672" y="7.437" fill-rule="evenodd" clip-rule="evenodd" fill="#666666" width="3.619" height="2.148"/>
	<rect x="7.672" y="4.381" fill-rule="evenodd" clip-rule="evenodd" fill="#666666" width="3.619" height="2.15"/>
	<rect x="7.672" y="1.271" fill-rule="evenodd" clip-rule="evenodd" fill="#666666" width="3.619" height="2.149"/>
	<rect x="12.889" y="15.412" fill-rule="evenodd" clip-rule="evenodd" fill="#666666" width="3.62" height="7.371"/>
	<rect x="12.889" y="12.187" fill-rule="evenodd" clip-rule="evenodd" fill="#666666" width="3.62" height="2.149"/>
	<rect x="12.889" y="9.132" fill-rule="evenodd" clip-rule="evenodd" fill="#666666" width="3.62" height="2.149"/>
	<rect x="12.889" y="6.022" fill-rule="evenodd" clip-rule="evenodd" fill="#666666" width="3.62" height="2.149"/>
</g>
</svg>
