<?xml version="1.0" encoding="utf-8"?>
<!-- Generator: Adobe Illustrator 16.0.0, SVG Export Plug-In . SVG Version: 6.00 Build 0)  -->
<!DOCTYPE svg PUBLIC "-//W3C//DTD SVG 1.1//EN" "http://www.w3.org/Graphics/SVG/1.1/DTD/svg11.dtd">
<svg version="1.1" xmlns="http://www.w3.org/2000/svg" xmlns:xlink="http://www.w3.org/1999/xlink" x="0px" y="0px"
	 width="142.842px" height="43.954px" viewBox="0 0 142.842 43.954" enable-background="new 0 0 142.842 43.954"
	 xml:space="preserve">
<g id="fill">
</g>
<g id="basis">
	<g>
		<path fill="#494949" d="M142.842,24.742c-0.5,0.032-0.721,0.032-1.094,0.032c-0.314,0-0.721,0-1.176-0.032
			c-0.172,0.626-0.467,1.518-0.952,2.847c-0.406,1.126-0.657,2.049-0.783,2.957h-0.046c-0.203-1.143-0.361-1.611-0.861-2.957
			c-0.439-1.126-0.799-2.065-1.063-2.847c-0.517,0.032-0.673,0.032-1.142,0.032c-0.422,0-0.924,0-1.156-0.032
			c0.092,0.516,0.248,0.984,1.859,4.458c0.813,1.753,1.127,2.55,1.409,3.113c-0.268,0.423-0.423,0.75-0.781,1.58
			c-0.313,0.72-0.55,1.235-0.908,1.907c0.547-0.03,0.781-0.03,1.328-0.03c0.394,0,0.83,0.015,1.079,0.03
			c0.377-1.078,0.737-1.986,1.738-4.535C141.887,27.197,142.671,25.414,142.842,24.742 M134.003,26.791
			c-0.029-0.375-0.046-0.579-0.046-0.923c0-0.328,0-0.656,0.046-1.079c-0.437,0.062-1.892,0-2.314,0.142l-0.046-0.031
			c0.14-0.626,0.078-1.236,0.155-1.878c-0.578,0.125-1.296,0.171-1.894,0.188c0.032,0.469,0.032,1.394,0.143,1.69l-0.032,0.015
			c-0.374-0.11-1.282-0.077-1.768-0.125c0.032,0.297,0.046,0.625,0.046,1.033c0,0.421-0.014,0.578-0.046,0.969
			c0.394-0.046,1.188-0.031,1.689-0.203l0.046,0.032c-0.139,0.906-0.248,2.69-0.248,3.582c0,1.877,0.703,2.737,2.455,2.737
			c0.625,0,1.268-0.079,1.784-0.22c-0.033-0.328-0.079-0.688-0.079-0.985c0-0.312,0-0.578,0.014-0.812
			c-0.265,0.045-0.561,0.062-0.891,0.062c-1.143,0-1.281-0.188-1.281-1.455c0-0.876-0.094-2.377-0.188-2.894l0.045-0.062
			C132.189,26.76,133.364,26.713,134.003,26.791 M125.383,28.229c-0.499-0.062-1.125-0.093-1.703-0.093
			c-0.642,0-1.282,0.031-1.878,0.109c0-1.314,0.642-1.924,1.895-1.924C124.946,26.322,125.383,26.838,125.383,28.229
			 M127.324,29.497v-0.641c0-3.05-1.299-4.411-3.598-4.411c-2.394,0-3.863,1.767-3.863,4.301c0,2.676,1.609,4.239,4.191,4.239
			c1.25,0,2.206-0.282,2.754-0.72c-0.109-0.483-0.156-1.36-0.156-1.611c-0.609,0.346-1.55,0.471-2.533,0.471
			c-1.346,0-2.143-0.564-2.269-1.722c0.249,0.062,0.905,0.094,1.484,0.094H127.324z M118.095,24.742
			c-0.39,0.016-0.72,0.032-1.127,0.032c-0.469,0-0.671-0.017-1.094-0.032c0.032,1.267,0.078,2.784,0.078,4.192
			c0,1.141-0.032,2.534-0.032,3.864c0.408-0.016,0.643-0.031,1.048-0.031c0.407,0,0.674,0.016,1.081,0.031
			c-0.017-1.347-0.049-2.724-0.049-3.864C118,27.526,118.049,26.119,118.095,24.742 M118.252,23.163
			c-0.031-0.423-0.031-0.595-0.031-0.986c0-0.391,0.017-0.579,0.031-0.954c-0.391,0.017-0.767,0.031-1.299,0.031
			c-0.516,0-0.877-0.015-1.281-0.031c0.031,0.312,0.031,0.563,0.031,0.954c0,0.392,0,0.578-0.018,0.986
			c0.438-0.017,0.721-0.032,1.282-0.032C117.531,23.131,117.876,23.146,118.252,23.163 M114.324,25.383
			c-0.533-0.641-1.298-0.891-2.346-0.891c-2.582,0-4.178,1.799-4.178,4.191c0,2.456,1.596,4.302,4.131,4.302
			c0.905,0,1.719-0.297,2.268-0.828c-0.109-0.547-0.171-1.362-0.171-1.816c-0.563,0.471-1.175,0.659-1.987,0.659
			c-1.44,0-2.271-0.908-2.271-2.285c0-1.346,0.815-2.235,2.271-2.235c0.938,0,1.454,0.172,2.032,0.734
			C114.121,26.463,114.199,25.791,114.324,25.383 M104.516,28.7c0,1.392-0.688,2.471-2.064,2.471s-2.065-1.079-2.065-2.471
			c0-1.472,0.706-2.331,2.08-2.331C103.843,26.369,104.516,27.229,104.516,28.7 M106.456,28.7c0-2.597-1.644-4.255-4.005-4.255
			c-2.363,0-4.004,1.658-4.004,4.223c0,2.612,1.58,4.412,4.004,4.412S106.456,31.28,106.456,28.7 M97.056,30.341
			c0-1.281-0.642-1.907-2.128-2.173c-1.486-0.28-1.597-0.391-1.597-0.893c0-0.562,0.438-0.844,1.55-0.844
			c0.798,0,1.438,0.094,1.938,0.391c0.032-0.656,0.096-1.329,0.221-1.705c-0.576-0.469-1.406-0.625-2.266-0.625
			c-2.19,0-3.396,1.048-3.396,2.674c0,1.22,0.578,1.941,2.189,2.223c1.406,0.249,1.565,0.374,1.565,0.875
			c0,0.596-0.313,0.845-1.345,0.845c-0.738,0-1.408-0.142-1.988-0.39c-0.017,0.547-0.061,1.188-0.156,1.704
			c0.547,0.39,1.406,0.562,2.205,0.562C95.851,32.985,97.056,32.031,97.056,30.341 M84.416,27.026
			c-0.046,0.391-0.095,1.017-0.095,1.485c0,0.58,0.032,1.049,0.049,1.22c-0.282,0.439-0.798,0.705-1.659,0.705
			c-1.251,0-1.925-0.735-1.925-1.987c0-1.221,0.532-1.924,1.846-1.924C83.524,26.525,84.058,26.697,84.416,27.026 M86.404,24.742
			c-0.377,0.016-0.565,0.032-0.799,0.032c-0.22,0-0.486-0.017-0.783-0.032c-0.078,0.265-0.141,0.531-0.203,0.955l-0.047,0.029
			c-0.391-0.781-1.018-1.188-2.158-1.188c-2.207,0-3.614,1.487-3.614,3.911c0,2.253,1.502,3.848,3.644,3.848
			c1.019,0,1.676-0.641,1.927-1.267l0.029,0.016c-0.015,0.142-0.046,0.392-0.046,0.641v0.376c0,1.394-0.625,1.972-2.097,1.972
			c-0.626,0-1.204-0.062-1.72-0.22c-0.016,0.579-0.047,1.126-0.141,1.752c0.595,0.297,1.282,0.407,1.955,0.407
			c2.33,0,3.975-1.205,3.975-4.177v-3.302C86.326,27.12,86.355,26.009,86.404,24.742 M75.203,30.688
			c-0.312,0.438-0.735,0.641-1.486,0.641c-0.86,0-1.222-0.282-1.222-0.923c0-0.688,0.439-0.923,1.456-0.987
			c0.517-0.029,0.939-0.029,1.252-0.093V30.688z M77.346,32.799c-0.127-0.72-0.188-1.439-0.188-2.111V27.73
			c0-2.27-1.064-3.254-3.427-3.254c-1.281,0-2.284,0.358-2.862,1.174c0.127,0.423,0.174,1.001,0.204,1.625l0.03,0.031
			c0.424-0.547,1.252-0.891,2.489-0.891c1.22,0,1.61,0.219,1.61,1.204v0.406h-0.391c-2.816,0-4.208,0.688-4.208,2.582
			c0,1.549,1.017,2.44,2.659,2.44c1.252,0,1.829-0.532,2.158-1.534h0.062c0.017,0.423,0.094,0.892,0.173,1.284
			c0.377-0.016,0.672-0.031,0.877-0.031C76.799,32.768,77.095,32.783,77.346,32.799 M66.975,30.688
			c-0.312,0.438-0.735,0.641-1.484,0.641c-0.861,0-1.221-0.282-1.221-0.923c0-0.688,0.438-0.923,1.455-0.987
			c0.515-0.029,0.938-0.029,1.25-0.093V30.688z M69.117,32.799c-0.124-0.72-0.187-1.439-0.187-2.111V27.73
			c0-2.27-1.064-3.254-3.425-3.254c-1.285,0-2.284,0.358-2.863,1.174c0.125,0.423,0.172,1.001,0.204,1.625l0.03,0.031
			c0.422-0.547,1.252-0.891,2.486-0.891c1.221,0,1.611,0.219,1.611,1.204v0.406h-0.391c-2.814,0-4.209,0.688-4.209,2.582
			c0,1.549,1.019,2.44,2.662,2.44c1.25,0,1.828-0.532,2.158-1.534h0.062c0.015,0.423,0.095,0.892,0.173,1.284
			c0.375-0.016,0.671-0.031,0.875-0.031C68.572,32.768,68.868,32.783,69.117,32.799 M61.625,24.742
			c-0.453,0.047-0.609,0.032-1,0.032c-0.422,0-0.564,0-1.08-0.032c-0.141,0.735-0.469,1.769-0.703,2.706
			c-0.268,1.063-0.517,2.237-0.658,3.191h-0.047c-0.156-1.002-0.5-2.159-0.906-3.442c-0.393-1.188-0.673-2.002-0.861-2.455
			c-0.172,0.016-0.53,0.032-0.827,0.032c-0.298,0-0.659-0.017-0.83-0.032c-0.202,0.47-0.454,1.251-0.845,2.455
			c-0.391,1.269-0.752,2.504-0.907,3.442h-0.032c-0.14-0.923-0.374-1.972-0.671-3.191c-0.235-0.971-0.548-1.955-0.704-2.706
			c-0.424,0.032-0.674,0.032-1.112,0.032c-0.406,0-0.53,0-1.017-0.032c0,0.328,0.33,1.486,1.316,4.536
			c0.499,1.533,0.843,2.613,1.078,3.521c0.312-0.016,0.611-0.031,0.938-0.031c0.281,0,0.735,0.016,0.892,0.031
			c0.126-0.282,0.784-1.815,1.204-3.161c0.299-0.954,0.563-1.846,0.642-2.752h0.049c0.093,0.906,0.342,1.798,0.655,2.721
			c0.454,1.347,1.096,2.927,1.205,3.192c0.156-0.016,0.61-0.031,0.955-0.031c0.28,0,0.876,0.031,0.876,0.031
			c0.187-0.846,0.517-1.846,1.062-3.505C61.25,26.26,61.625,25.023,61.625,24.742"/>
		<path fill="#494949" d="M21.978-0.051C9.839-0.051,0,9.789,0,21.926c0,12.138,9.839,21.978,21.978,21.978
			c12.136,0,21.976-9.84,21.976-21.978C43.953,9.789,34.113-0.051,21.978-0.051z M26.531,32.291l-0.045-6.95
			c-0.049-2.584-1.992-4.746-4.531-4.746s-4.486,2.162-4.486,4.746v6.95H9.227l1.403-13.808l4.03-8.45l1.723,6.951l5.572-9.396
			l5.66,9.396l1.637-6.951l4.072,8.45l1.404,13.808H26.531z"/>
	</g>
</g>
</svg>
