<?xml version="1.0" encoding="utf-8"?>
<!-- Generator: Adobe Illustrator 16.0.0, SVG Export Plug-In . SVG Version: 6.00 Build 0)  -->
<!DOCTYPE svg PUBLIC "-//W3C//DTD SVG 1.1//EN" "http://www.w3.org/Graphics/SVG/1.1/DTD/svg11.dtd">
<svg version="1.1" xmlns="http://www.w3.org/2000/svg" xmlns:xlink="http://www.w3.org/1999/xlink" x="0px" y="0px"
	 width="203.152px" height="62.196px" viewBox="0 0 203.152 62.196" enable-background="new 0 0 203.152 62.196"
	 xml:space="preserve">
<g id="Layer_1">
</g>
<g id="Layer_3">
	<g>
		<path fill="#494949" d="M203.152,34.945c-0.711,0.045-1.023,0.045-1.557,0.045c-0.445,0-1.023,0-1.67-0.045
			c-0.244,0.89-0.666,2.158-1.355,4.049c-0.578,1.603-0.936,2.914-1.113,4.205h-0.066c-0.289-1.624-0.512-2.292-1.225-4.205
			c-0.623-1.602-1.135-2.937-1.512-4.049c-0.734,0.045-0.957,0.045-1.623,0.045c-0.602,0-1.314,0-1.646-0.045
			c0.133,0.734,0.355,1.401,2.646,6.34c1.156,2.493,1.602,3.627,2.002,4.428c-0.379,0.601-0.6,1.067-1.111,2.247
			c-0.445,1.023-0.779,1.758-1.291,2.714c0.779-0.045,1.113-0.045,1.891-0.045c0.557,0,1.18,0.022,1.535,0.045
			c0.535-1.534,1.047-2.825,2.471-6.451C201.795,38.438,202.908,35.901,203.152,34.945 M190.582,37.859
			c-0.043-0.533-0.064-0.823-0.064-1.312c0-0.467,0-0.934,0.064-1.535c-0.621,0.09-2.689,0-3.293,0.2l-0.064-0.044
			c0.199-0.89,0.111-1.757,0.221-2.67c-0.822,0.178-1.844,0.244-2.691,0.268c0.045,0.667,0.045,1.98,0.201,2.402l-0.045,0.022
			c-0.533-0.156-1.824-0.111-2.514-0.179c0.045,0.423,0.066,0.89,0.066,1.469c0,0.601-0.021,0.823-0.066,1.379
			c0.557-0.066,1.691-0.044,2.402-0.289l0.066,0.045c-0.199,1.291-0.355,3.826-0.355,5.095c0,2.669,1.002,3.893,3.494,3.893
			c0.889,0,1.801-0.111,2.535-0.312c-0.045-0.467-0.111-0.979-0.111-1.401c0-0.444,0-0.823,0.021-1.156
			c-0.379,0.066-0.801,0.089-1.268,0.089c-1.625,0-1.824-0.268-1.824-2.069c0-1.246-0.133-3.382-0.266-4.115l0.064-0.09
			C188.004,37.815,189.672,37.748,190.582,37.859 M178.324,39.906c-0.711-0.089-1.602-0.134-2.424-0.134
			c-0.912,0-1.824,0.045-2.67,0.156c0-1.869,0.912-2.736,2.691-2.736S178.324,37.926,178.324,39.906 M181.084,41.708v-0.912
			c0-4.337-1.848-6.273-5.117-6.273c-3.404,0-5.494,2.514-5.494,6.118c0,3.805,2.289,6.029,5.961,6.029
			c1.779,0,3.137-0.401,3.916-1.024c-0.156-0.688-0.223-1.935-0.223-2.291c-0.867,0.49-2.203,0.668-3.604,0.668
			c-1.914,0-3.047-0.801-3.227-2.447c0.355,0.089,1.291,0.133,2.113,0.133H181.084z M167.957,34.945
			c-0.555,0.022-1.023,0.045-1.602,0.045c-0.668,0-0.957-0.022-1.557-0.045c0.045,1.802,0.111,3.961,0.111,5.962
			c0,1.624-0.045,3.604-0.045,5.495c0.578-0.021,0.912-0.044,1.49-0.044s0.957,0.022,1.535,0.044
			c-0.021-1.913-0.066-3.871-0.066-5.495C167.824,38.906,167.891,36.902,167.957,34.945 M168.18,32.699
			c-0.043-0.601-0.043-0.847-0.043-1.402s0.021-0.823,0.043-1.356c-0.555,0.021-1.09,0.044-1.846,0.044
			c-0.734,0-1.246-0.022-1.824-0.044c0.045,0.445,0.045,0.801,0.045,1.356s0,0.823-0.023,1.402c0.623-0.023,1.023-0.045,1.824-0.045
			S167.646,32.676,168.18,32.699 M162.594,35.857c-0.756-0.912-1.846-1.268-3.336-1.268c-3.672,0-5.941,2.559-5.941,5.962
			c0,3.492,2.27,6.118,5.873,6.118c1.291,0,2.447-0.423,3.227-1.179c-0.156-0.779-0.244-1.937-0.244-2.582
			c-0.801,0.668-1.67,0.936-2.826,0.936c-2.047,0-3.227-1.291-3.227-3.248c0-1.914,1.158-3.182,3.227-3.182
			c1.334,0,2.068,0.245,2.893,1.045C162.305,37.393,162.416,36.437,162.594,35.857 M148.645,40.574c0,1.979-0.979,3.515-2.936,3.515
			c-1.959,0-2.938-1.535-2.938-3.515c0-2.092,1.002-3.315,2.959-3.315S148.645,38.482,148.645,40.574 M151.404,40.574
			c0-3.693-2.338-6.052-5.695-6.052c-3.361,0-5.695,2.358-5.695,6.007c0,3.715,2.246,6.273,5.695,6.273
			C149.156,46.803,151.404,44.244,151.404,40.574 M138.033,42.909c0-1.824-0.912-2.714-3.025-3.092
			c-2.113-0.399-2.27-0.556-2.27-1.269c0-0.801,0.623-1.201,2.203-1.201c1.135,0,2.047,0.134,2.758,0.557
			c0.045-0.935,0.135-1.891,0.312-2.425c-0.822-0.667-2.002-0.89-3.225-0.89c-3.115,0-4.828,1.49-4.828,3.804
			c0,1.734,0.822,2.759,3.113,3.159c2.002,0.355,2.225,0.533,2.225,1.246c0,0.846-0.445,1.201-1.912,1.201
			c-1.047,0-2.002-0.2-2.826-0.556c-0.023,0.778-0.088,1.689-0.223,2.425c0.779,0.556,2.002,0.801,3.137,0.801
			C136.32,46.67,138.033,45.312,138.033,42.909 M120.059,38.193c-0.066,0.557-0.135,1.446-0.135,2.113
			c0,0.824,0.045,1.491,0.068,1.735c-0.4,0.623-1.135,1.001-2.359,1.001c-1.779,0-2.736-1.045-2.736-2.825
			c0-1.735,0.756-2.736,2.625-2.736C118.789,37.481,119.547,37.726,120.059,38.193 M122.885,34.945
			c-0.535,0.022-0.803,0.045-1.135,0.045c-0.312,0-0.691-0.022-1.113-0.045c-0.111,0.378-0.201,0.756-0.289,1.357l-0.066,0.044
			c-0.557-1.112-1.447-1.69-3.07-1.69c-3.137,0-5.141,2.113-5.141,5.562c0,3.204,2.137,5.473,5.184,5.473
			c1.447,0,2.381-0.912,2.738-1.802l0.043,0.022c-0.021,0.2-0.066,0.557-0.066,0.912v0.534c0,1.979-0.889,2.803-2.98,2.803
			c-0.891,0-1.713-0.089-2.447-0.312c-0.021,0.823-0.066,1.602-0.199,2.492c0.846,0.422,1.822,0.578,2.779,0.578
			c3.314,0,5.652-1.713,5.652-5.939v-4.695C122.773,38.327,122.816,36.747,122.885,34.945 M106.955,43.399
			c-0.445,0.623-1.047,0.912-2.113,0.912c-1.225,0-1.736-0.4-1.736-1.312c0-0.979,0.623-1.312,2.07-1.402
			c0.732-0.044,1.334-0.044,1.779-0.133V43.399z M110.004,46.402c-0.18-1.023-0.268-2.046-0.268-3.003v-4.205
			c0-3.226-1.514-4.627-4.873-4.627c-1.824,0-3.248,0.511-4.07,1.668c0.178,0.602,0.244,1.425,0.289,2.313l0.043,0.045
			c0.602-0.778,1.781-1.268,3.539-1.268c1.734,0,2.291,0.312,2.291,1.713v0.578h-0.557c-4.004,0-5.984,0.979-5.984,3.671
			c0,2.203,1.447,3.471,3.783,3.471c1.779,0,2.602-0.756,3.068-2.181h0.09c0.021,0.601,0.133,1.269,0.244,1.824
			c0.535-0.021,0.957-0.044,1.246-0.044C109.225,46.358,109.646,46.381,110.004,46.402 M95.254,43.399
			c-0.445,0.623-1.047,0.912-2.113,0.912c-1.225,0-1.734-0.4-1.734-1.312c0-0.979,0.621-1.312,2.068-1.402
			c0.732-0.044,1.334-0.044,1.779-0.133V43.399z M98.301,46.402c-0.178-1.023-0.266-2.046-0.266-3.003v-4.205
			c0-3.226-1.514-4.627-4.873-4.627c-1.824,0-3.248,0.511-4.07,1.668c0.178,0.602,0.244,1.425,0.289,2.313l0.045,0.045
			c0.6-0.778,1.779-1.268,3.537-1.268c1.734,0,2.291,0.312,2.291,1.713v0.578h-0.557c-4.004,0-5.984,0.979-5.984,3.671
			c0,2.203,1.445,3.471,3.783,3.471c1.779,0,2.602-0.756,3.068-2.181h0.09c0.021,0.601,0.133,1.269,0.244,1.824
			c0.535-0.021,0.957-0.044,1.246-0.044C97.523,46.358,97.945,46.381,98.301,46.402 M87.645,34.945
			C87,35.012,86.777,34.99,86.223,34.99c-0.602,0-0.803,0-1.537-0.045c-0.199,1.046-0.666,2.515-1,3.85
			c-0.379,1.512-0.734,3.181-0.936,4.538h-0.066c-0.221-1.425-0.711-3.071-1.289-4.896c-0.557-1.69-0.957-2.847-1.225-3.492
			c-0.244,0.022-0.756,0.045-1.178,0.045c-0.424,0-0.936-0.022-1.18-0.045c-0.289,0.668-0.645,1.779-1.201,3.492
			c-0.557,1.803-1.068,3.561-1.291,4.896h-0.045c-0.199-1.312-0.533-2.804-0.955-4.538c-0.334-1.381-0.779-2.781-1.002-3.85
			c-0.602,0.045-0.957,0.045-1.58,0.045c-0.578,0-0.756,0-1.445-0.045c0,0.467,0.467,2.113,1.869,6.451
			c0.711,2.181,1.201,3.717,1.535,5.006c0.443-0.021,0.867-0.044,1.334-0.044c0.4,0,1.045,0.022,1.268,0.044
			c0.178-0.399,1.113-2.58,1.713-4.494c0.424-1.356,0.801-2.624,0.912-3.915h0.068c0.133,1.291,0.488,2.559,0.934,3.871
			c0.645,1.914,1.557,4.16,1.713,4.538c0.223-0.021,0.867-0.044,1.357-0.044c0.4,0,1.246,0.044,1.246,0.044
			c0.266-1.201,0.734-2.624,1.512-4.983C87.111,37.104,87.645,35.346,87.645,34.945"/>
		<path fill="#494949" d="M31.256-0.315C13.994-0.315,0,13.678,0,30.94s13.994,31.256,31.256,31.256S62.512,48.203,62.512,30.94
			S48.518-0.315,31.256-0.315z M37.732,45.683l-0.062-9.886c-0.07-3.675-2.834-6.75-6.445-6.75c-3.609,0-6.381,3.075-6.381,6.75
			v9.886H13.121l1.998-19.638l5.73-12.02l2.451,9.887l7.924-13.364l8.049,13.364l2.328-9.887l5.793,12.02l1.996,19.638H37.732z"/>
	</g>
</g>
</svg>
