<?xml version="1.0" encoding="utf-8"?>
<!-- Generator: Adobe Illustrator 16.0.0, SVG Export Plug-In . SVG Version: 6.00 Build 0)  -->
<!DOCTYPE svg PUBLIC "-//W3C//DTD SVG 1.1//EN" "http://www.w3.org/Graphics/SVG/1.1/DTD/svg11.dtd">
<svg version="1.1" xmlns="http://www.w3.org/2000/svg" xmlns:xlink="http://www.w3.org/1999/xlink" x="0px" y="0px" width="32px"
	 height="32px" viewBox="0 0 32 32" enable-background="new 0 0 32 32" xml:space="preserve">
<g id="fill">
</g>
<g id="basis">
	<g>
		<path fill="#666666" d="M28.021,9.646c0,0-1.633-0.328-2.608-0.095c-0.541,0.072-0.678,0.469-0.678,0.469
			c-0.05,0.136-0.025,0.335,0.032,0.571c0.024,0.086,0.045,0.175,0.067,0.263c0.234,0.83,0.395,1.92,0.224,3.581
			c-0.495,4.244-3.889,7.36-8.146,7.811v5.01h5.454v-4.5c0,0,3.878-3.556,4.765-5.09C27.13,17.666,29.521,13.931,28.021,9.646z"/>
		<path fill="#666666" d="M6.745,13.109c0-0.033,0.005-0.063,0.005-0.095c0.001-0.154,0.008-0.304,0.023-0.451
			c0.052-0.87,0.222-1.707,0.5-2.495c-0.004-0.016-0.002-0.035-0.008-0.048c0,0-0.137-0.396-0.678-0.469
			C5.611,9.319,3.979,9.646,3.979,9.646c-1.501,4.285,0.891,8.019,0.891,8.019c0.887,1.534,4.765,5.09,4.765,5.09v4.5h5.454v-4.998
			C10.417,21.826,6.745,17.892,6.745,13.109z"/>
		<path fill="#666666" d="M24.342,12.732c0-4.66-3.778-8.437-8.438-8.437c-4.66,0-8.438,3.777-8.438,8.437s3.777,8.438,8.438,8.438
			C20.563,21.17,24.342,17.393,24.342,12.732z M19.076,7.644L19.68,7.24c0,0-0.255-0.648-0.212-0.967
			c0.147-0.071,0.741,0.24,1.244,0.768c-0.339,1.258-1.131,1.107-1.131,1.107S18.999,8.135,19.076,7.644z M13.99,15.073
			c-0.037,0.189-0.265,0.643-0.415,0.945s-0.227,0.414-0.415,0.565c-0.188,0.155-0.303,0.416-0.303,0.416L12.82,17.64
			c0,0,0.073,0.53,0.187,0.72c0.113,0.187-0.403,1.313-0.403,1.313c-0.329-0.067-0.511-0.446-0.625-0.748
			c-0.114-0.304-0.265-0.462-0.227-0.801c0.039-0.34-0.295-0.519-0.406-0.709c-0.111-0.191-0.264-0.453-0.264-0.644
			c0-0.189-0.415-0.452-0.415-0.452s-0.756-0.341-0.869-0.492c-0.113-0.151-0.228-0.796-0.265-1.057
			c-0.036-0.263,0.113-0.942,0.113-0.942s0.306-0.23,0.113-0.417c-0.189-0.188-0.227-0.681-0.227-0.681l-0.341-0.376
			c0,0-0.265-0.375-0.3-0.566c-0.04-0.189,0-0.302,0.035-0.492c0.038-0.191-0.075-0.53-0.075-0.716
			c1.411-3.464,3.777-4.269,3.777-4.269l0.19,0.792c0,0-0.416,0.111-0.641,0.038c-0.228-0.076-0.342-0.076-0.342-0.076L11.536,7.48
			c0,0-0.114,0.266-0.153,0.417c-0.037,0.15,0.074,0.377,0.074,0.377s0.531,0.039,0.531-0.114c0-0.151-0.075-0.224-0.075-0.224
			l-0.075-0.266c0,0,0.342-0.189,1.245-0.114c0.907,0.076,0.569,0.718,0.946,0.871c0.378,0.151-0.304,0.678-0.454,0.98
			s-0.378-0.379-0.378-0.379s0.228-0.26-0.15-0.338c-0.379-0.074-0.629,0.68-0.438,0.644c0.189-0.038,0.398,0.203,0.362,0.39
			c-0.039,0.189-0.039,0.175-0.229,0.591c-0.188,0.417-0.599,0.722-0.599,0.722s-0.192-0.118-0.081,0.109
			c0.116,0.226-0.037,0.757-0.037,0.905c0,0.151-0.453-0.263-0.527-0.641c-0.077-0.377-0.52-0.05-0.67-0.011
			c-0.153,0.039-0.428-0.066-0.501-0.253c-0.076-0.189-0.758,0.377-0.946,0.49C9.192,11.747,9.27,12.05,9.57,11.902
			c0.303-0.155,0.566-0.04,0.492,0.265c-0.076,0.299-0.378,0.112-0.339,0.299c0.036,0.189,0.339,0.379,0.413,0.644
			c0.077,0.263,0.795,0.038,1.021-0.075c0.226-0.114,0.869-0.229,0.944,0.075c0.078,0.301,0.793,0.414,1.059,0.489
			c0.265,0.076,0.793,0.112,1.095,0.417C14.557,14.318,14.029,14.883,13.99,15.073z M15.688,6.234
			c-0.037,0.376-0.64,0.869-0.564,1.021c0.076,0.152,0,0.797-0.529,0.231c-0.529-0.567-1.06-0.759-1.02-1.139
			c0.009-0.075,0.547-0.196,0.556-0.327c0.801-0.746,2.08-0.591,2.177-0.417C16.08,5.982,15.728,5.854,15.688,6.234z M20.322,18.561
			c-0.401-0.404-0.2-0.756-0.2-0.756l0.113-0.604l0.063-1.021c0,0,0-1.056-1.008-0.553c-1.082,0.274-0.632,0.274-1.727,0.352
			c-1.094,0.074-0.913-2.233-0.913-2.233c0-3.457,2.651-0.848,2.651-0.848c1.511,1.007,1.713-0.836,1.713-0.836l1.107-0.397
			l0.102-0.507l-0.161-0.704L20.454,9.79c0,0-0.155,0.524,0.258,1.167c0,0-0.138,0.729-0.477,0.541l-0.933-0.469
			c0,0-0.314-0.136-0.818,0.167c-0.503,0.302-1.358-0.014-1.358-0.014s0.069-0.505,0.6-0.768l0.435-0.287
			c0,0-0.115-0.519-0.015-0.919c0.1-0.404,0.276-0.05,0.679-0.352c0.402-0.302,0.681,0.59,1.283,0.489
			c0.604-0.1,0.303-0.2,0.706-0.402c0.404-0.201,0.705,0.402,0.705,0.402l0.806,0.101c0,0-0.127-0.912-0.07-0.675
			c0.51,0.877,1.257,3.215,0.98,3.632c-0.166-0.074-0.306-0.136-0.306-0.136h-1.008l0.604,0.707c0,0,0.293,0.429,0.707,0.401
			C22.959,16.532,20.322,18.561,20.322,18.561z"/>
	</g>
</g>
</svg>
