<?xml version="1.0" encoding="utf-8"?>
<!-- Generator: Adobe Illustrator 16.0.0, SVG Export Plug-In . SVG Version: 6.00 Build 0)  -->
<!DOCTYPE svg PUBLIC "-//W3C//DTD SVG 1.1//EN" "http://www.w3.org/Graphics/SVG/1.1/DTD/svg11.dtd">
<svg version="1.1" xmlns="http://www.w3.org/2000/svg" xmlns:xlink="http://www.w3.org/1999/xlink" x="0px" y="0px"
	 width="24.729px" height="61.032px" viewBox="0 0 24.729 61.032" enable-background="new 0 0 24.729 61.032" xml:space="preserve">
<g id="fill">
	<rect x="8.062" y="24.078" fill="#999999" width="8.828" height="15.537"/>
</g>
<g id="basis">
	<g>
		<rect y="-68" fill="#666666" width="33.451" height="11.803"/>
		<rect y="-44.921" fill="#666666" width="64" height="11.803"/>
		<rect y="-23.803" fill="#666666" width="64" height="11.803"/>
		<rect x="42.77" y="-68" fill="#666666" width="21.23" height="15.924"/>
	</g>
	<g>
		<path fill="#666666" d="M100.062-67.092c-3.061,0-5.54,2.481-5.54,5.54c0,0.273,0.065,24.492,0.065,24.492h10.948
			c0,0,0.068-24.217,0.068-24.492C105.604-64.611,103.123-67.092,100.062-67.092z M104.483-38.521h-8.739v-23.023h8.739V-38.521z"/>
		<circle fill="#666666" cx="100.062" cy="-57.498" r="3.088"/>
		<circle fill="#666666" cx="100.062" cy="-50.092" r="3.087"/>
		<circle fill="#666666" cx="100.062" cy="-42.668" r="3.087"/>
		<polygon fill="#666666" points="106.528,-59.971 106.528,-54.409 112.093,-59.971 		"/>
		<polygon fill="#666666" points="106.528,-47.312 112.093,-52.873 106.528,-52.873 		"/>
		<polygon fill="#666666" points="106.528,-39.886 112.093,-45.45 106.528,-45.45 		"/>
		<polygon fill="#666666" points="93.47,-54.409 93.47,-59.971 87.907,-59.971 		"/>
		<polygon fill="#666666" points="93.47,-47.312 93.47,-52.873 87.907,-52.873 		"/>
		<polygon fill="#666666" points="93.47,-39.886 93.47,-45.45 87.907,-45.45 		"/>
	</g>
	<polygon fill="#666666" points="163.112,-54.978 153.52,-54.978 153.52,-64.57 148.783,-64.57 148.783,-54.978 139.19,-54.978 
		139.19,-50.24 148.783,-50.24 148.783,-40.648 153.52,-40.648 153.52,-50.24 163.112,-50.24 	"/>
	<path fill="#666666" d="M215.104-53.933l-3.026-7.775c-0.137-0.47-0.582-1.051-1.303-1.051h-6.774h-6.775
		c-0.721,0-1.166,0.582-1.304,1.051l-3.026,7.775c-0.219,0.584-2.422,1.136-2.52,2.605v8.928c0,0.392,0.318,0.708,0.708,0.708h2.403
		c0.391,0,0.708-0.317,0.708-0.708v-1.982h19.61v1.982c0,0.392,0.316,0.708,0.708,0.708h2.402c0.392,0,0.708-0.317,0.708-0.708
		v-8.928C217.527-52.796,215.322-53.348,215.104-53.933z M196.412-49.444c0,0.391-0.317,0.709-0.708,0.709h-2.073
		c-0.392,0-0.708-0.318-0.708-0.709v-1.175c0-0.391,0.316-0.708,0.708-0.708h2.073c0.391,0,0.708,0.317,0.708,0.708V-49.444z
		 M194.311-53.988l2.796-6.81c0.206-0.306,0.502-0.612,1.123-0.612h5.771h5.771c0.619,0,0.916,0.307,1.122,0.612l2.796,6.81h-9.689
		H194.311z M215.065-49.444c0,0.391-0.315,0.709-0.708,0.709h-2.072c-0.392,0-0.709-0.318-0.709-0.709v-1.175
		c0-0.391,0.317-0.708,0.709-0.708h2.072c0.393,0,0.708,0.317,0.708,0.708V-49.444z"/>
	<g>
		<g>
			<path fill="#666666" d="M265.533-65.454h-18.447c-0.453,0-0.821,0.368-0.821,0.822v20.807c0,0.453,0.368,0.821,0.821,0.821
				h18.447c0.454,0,0.822-0.368,0.822-0.821v-20.807C266.355-65.086,265.987-65.454,265.533-65.454z M249.045-62.166
				c0-0.455,0.368-0.823,0.82-0.823h12.678c0.453,0,0.82,0.368,0.82,0.823v10c0,0.455-0.367,0.822-0.82,0.822h-12.678
				c-0.452,0-0.82-0.368-0.82-0.822V-62.166z M249.229-45.049c-0.885,0-1.602-0.716-1.602-1.601c0-0.883,0.717-1.599,1.602-1.599
				c0.882,0,1.599,0.716,1.599,1.599C250.828-45.765,250.111-45.049,249.229-45.049z M263.363-45.049
				c-0.883,0-1.599-0.716-1.599-1.601c0-0.883,0.716-1.599,1.599-1.599c0.886,0,1.602,0.716,1.602,1.599
				C264.965-45.765,264.249-45.049,263.363-45.049z"/>
			<polygon fill="#666666" points="266.974,-37.601 263.327,-43.003 261.257,-43.003 262.397,-41.045 250.158,-41.045 
				251.3,-43.003 249.229,-43.003 245.583,-37.601 248.153,-37.601 249.229,-39.447 249.229,-39.446 263.327,-39.446 
				264.404,-37.601 			"/>
		</g>
	</g>
	<g>
		<path fill="#666666" d="M320.021-58.354c0,0-1.633-0.328-2.608-0.095c-0.541,0.072-0.678,0.469-0.678,0.469
			c-0.05,0.136-0.025,0.335,0.032,0.571c0.024,0.086,0.045,0.175,0.067,0.263c0.234,0.83,0.395,1.92,0.224,3.581
			c-0.495,4.244-3.889,7.36-8.146,7.811v5.01h5.454v-4.5c0,0,3.878-3.556,4.765-5.09C319.13-50.334,321.521-54.069,320.021-58.354z"
			/>
		<path fill="#666666" d="M298.745-54.891c0-0.033,0.005-0.063,0.005-0.095c0.001-0.154,0.008-0.304,0.023-0.451
			c0.052-0.87,0.222-1.707,0.5-2.495c-0.004-0.016-0.002-0.035-0.008-0.048c0,0-0.137-0.396-0.678-0.469
			c-0.977-0.232-2.608,0.095-2.608,0.095c-1.501,4.285,0.891,8.019,0.891,8.019c0.887,1.534,4.765,5.09,4.765,5.09v4.5h5.454v-4.998
			C302.417-46.174,298.745-50.108,298.745-54.891z"/>
		<path fill="#666666" d="M316.342-55.268c0-4.66-3.778-8.437-8.438-8.437c-4.66,0-8.438,3.777-8.438,8.437s3.777,8.438,8.438,8.438
			C312.563-46.83,316.342-50.607,316.342-55.268z M311.076-60.356l0.604-0.404c0,0-0.255-0.648-0.212-0.967
			c0.147-0.071,0.741,0.24,1.244,0.768c-0.339,1.258-1.131,1.107-1.131,1.107S310.999-59.865,311.076-60.356z M305.99-52.927
			c-0.037,0.189-0.265,0.643-0.415,0.945s-0.227,0.414-0.415,0.565c-0.188,0.155-0.303,0.416-0.303,0.416l-0.037,0.642
			c0,0,0.073,0.53,0.187,0.72c0.113,0.187-0.403,1.313-0.403,1.313c-0.329-0.067-0.511-0.446-0.625-0.748
			c-0.114-0.304-0.265-0.462-0.227-0.801c0.039-0.34-0.295-0.519-0.406-0.709c-0.111-0.191-0.264-0.453-0.264-0.644
			c0-0.189-0.415-0.452-0.415-0.452s-0.756-0.341-0.869-0.492c-0.113-0.151-0.228-0.796-0.265-1.057
			c-0.036-0.263,0.113-0.942,0.113-0.942s0.306-0.23,0.113-0.417c-0.189-0.188-0.227-0.681-0.227-0.681l-0.341-0.376
			c0,0-0.265-0.375-0.3-0.566c-0.04-0.189,0-0.302,0.035-0.492c0.038-0.191-0.075-0.53-0.075-0.716
			c1.411-3.464,3.777-4.269,3.777-4.269l0.19,0.792c0,0-0.416,0.111-0.641,0.038c-0.228-0.076-0.342-0.076-0.342-0.076l-0.302,0.415
			c0,0-0.114,0.266-0.153,0.417c-0.037,0.15,0.074,0.377,0.074,0.377s0.531,0.039,0.531-0.114c0-0.151-0.075-0.224-0.075-0.224
			l-0.075-0.266c0,0,0.342-0.189,1.245-0.114c0.907,0.076,0.569,0.718,0.946,0.871c0.378,0.151-0.304,0.678-0.454,0.98
			s-0.378-0.379-0.378-0.379s0.228-0.26-0.15-0.338c-0.379-0.074-0.629,0.68-0.438,0.644c0.189-0.038,0.398,0.203,0.362,0.39
			c-0.039,0.189-0.039,0.175-0.229,0.591c-0.188,0.417-0.599,0.722-0.599,0.722s-0.192-0.118-0.081,0.109
			c0.116,0.226-0.037,0.757-0.037,0.905c0,0.151-0.453-0.263-0.527-0.641c-0.077-0.377-0.52-0.05-0.67-0.011
			c-0.153,0.039-0.428-0.066-0.501-0.253c-0.076-0.189-0.758,0.377-0.946,0.49c-0.189,0.112-0.112,0.415,0.188,0.267
			c0.303-0.155,0.566-0.04,0.492,0.265c-0.076,0.299-0.378,0.112-0.339,0.299c0.036,0.189,0.339,0.379,0.413,0.644
			c0.077,0.263,0.795,0.038,1.021-0.075c0.226-0.114,0.869-0.229,0.944,0.075c0.078,0.301,0.793,0.414,1.059,0.489
			c0.265,0.076,0.793,0.112,1.095,0.417C306.557-53.682,306.029-53.117,305.99-52.927z M307.688-61.766
			c-0.037,0.376-0.64,0.869-0.564,1.021c0.076,0.152,0,0.797-0.529,0.231c-0.529-0.567-1.06-0.759-1.02-1.139
			c0.009-0.075,0.547-0.196,0.556-0.327c0.801-0.746,2.08-0.591,2.177-0.417C308.08-62.018,307.728-62.146,307.688-61.766z
			 M312.322-49.439c-0.401-0.404-0.2-0.756-0.2-0.756l0.113-0.604l0.063-1.021c0,0,0-1.056-1.008-0.553
			c-1.082,0.274-0.632,0.274-1.727,0.352c-1.094,0.074-0.913-2.233-0.913-2.233c0-3.457,2.651-0.848,2.651-0.848
			c1.511,1.007,1.713-0.836,1.713-0.836l1.107-0.397l0.102-0.507l-0.161-0.704l-1.609-0.664c0,0-0.155,0.524,0.258,1.167
			c0,0-0.138,0.729-0.477,0.541l-0.933-0.469c0,0-0.314-0.136-0.818,0.167c-0.503,0.302-1.358-0.014-1.358-0.014
			s0.069-0.505,0.6-0.768l0.435-0.287c0,0-0.115-0.519-0.015-0.919c0.1-0.404,0.276-0.05,0.679-0.352
			c0.402-0.302,0.681,0.59,1.283,0.489c0.604-0.1,0.303-0.2,0.706-0.402c0.404-0.201,0.705,0.402,0.705,0.402l0.806,0.101
			c0,0-0.127-0.912-0.07-0.675c0.51,0.877,1.257,3.215,0.98,3.632c-0.166-0.074-0.306-0.136-0.306-0.136h-1.008l0.604,0.707
			c0,0,0.293,0.429,0.707,0.401C314.959-51.468,312.322-49.439,312.322-49.439z"/>
	</g>
	<path fill-rule="evenodd" clip-rule="evenodd" fill="#666666" d="M358.857-58.302c-0.401-1.263-0.772-2.436-1.143-3.605
		c-4.346,0.802-8.053,4.553-8.849,9.271c-0.928,5.48,1.956,10.462,6.636,12.637c4.862,2.26,10.236,0.895,13.566-2.792
		c3.386-3.748,4.557-9.953,0.126-15.573c0.615-0.483,1.25-0.947,1.84-1.459c0.295-0.255,0.486-0.21,0.694,0.059
		c1.566,2.04,2.615,4.286,3.077,6.85c0.47,2.606,0.196,5.113-0.756,7.517c-1.997,5.047-5.725,8.051-11.06,9.118
		c-3.229,0.646-6.262,0.041-9.132-1.38c-2.469-1.222-4.395-3.089-5.806-5.495c-1.417-2.415-2.154-5.019-2.052-7.78
		c0.133-3.513,1.319-6.668,3.733-9.321c1.818-1.999,3.984-3.402,6.572-4.16c0.473-0.138,0.618-0.336,0.413-0.855
		c-0.277-0.705-0.438-1.458-0.624-2.196c-0.04-0.155,0.023-0.336,0.04-0.507c0.147,0.015,0.305-0.002,0.438,0.049
		c2.159,0.844,4.313,1.7,6.474,2.546c0.443,0.175,0.611,0.494,0.348,0.878c-1.348,1.958-2.72,3.897-4.092,5.838
		C359.228-58.557,359.095-58.491,358.857-58.302z"/>
	<path fill-rule="evenodd" clip-rule="evenodd" fill="#666666" d="M358.574-54.77c0,1.713,0,3.435,0,5.195c-0.22,0-0.403,0-0.656,0
		c0-1.017,0-2.015,0-3.014c-0.063-0.01-0.128-0.021-0.191-0.03c-0.142,0.605-0.285,1.209-0.422,1.814
		c-0.057,0.252-0.059,0.522-0.15,0.758c-0.075,0.191-0.251,0.342-0.381,0.51c-0.145-0.179-0.364-0.337-0.419-0.54
		c-0.174-0.643-0.279-1.304-0.425-1.956c-0.046-0.199-0.133-0.387-0.326-0.562c0,0.991,0,1.982,0,3.015
		c-0.253,0.017-0.44,0.03-0.674,0.045c0-1.763,0-3.482,0-5.254c0.311,0,0.626,0,1.017,0c0.238,1.206,0.486,2.445,0.731,3.685
		c0.042,0.008,0.084,0.016,0.126,0.024c0.062-0.182,0.147-0.36,0.181-0.547c0.146-0.808,0.289-1.617,0.407-2.429
		C357.487-54.718,357.795-55.028,358.574-54.77z"/>
	<path fill-rule="evenodd" clip-rule="evenodd" fill="#666666" d="M365.65-49.559c-0.284,0-0.476,0-0.69,0
		c-0.148-0.53-0.273-1.072-0.464-1.59c-0.061-0.165-0.292-0.265-0.446-0.395c-0.101,0.156-0.276,0.306-0.289,0.47
		c-0.04,0.476-0.015,0.958-0.015,1.488c-0.24,0-0.439,0-0.665,0c0-1.743,0-3.46,0-5.249c0.487,0,0.944-0.042,1.392,0.01
		c0.564,0.067,1.021,0.342,0.979,0.995c-0.039,0.628-0.178,1.249-0.24,1.875c-0.028,0.286-0.011,0.586,0.047,0.867
		C365.36-50.588,365.509-50.099,365.65-49.559z M363.792-54.226c0,0.762,0,1.362,0,2.159c0.417-0.2,0.911-0.284,0.983-0.506
		c0.131-0.396,0.1-0.912-0.048-1.308C364.658-54.069,364.163-54.1,363.792-54.226z"/>
	<path fill-rule="evenodd" clip-rule="evenodd" fill="#666666" d="M362.222-49.554c-0.314,0-0.486,0-0.687,0
		c-0.087-0.375-0.174-0.747-0.265-1.135c-0.289,0-0.549,0-0.788,0c-0.508,0.207,0.087,1.327-1.03,1.104
		c0.294-1.748,0.581-3.463,0.873-5.216c0.333,0,0.649,0,1.007,0C361.624-53.073,361.916-51.355,362.222-49.554z M360.893-53.417
		c-0.054-0.003-0.105-0.005-0.158-0.008c-0.096,0.636-0.191,1.273-0.291,1.947c0.288,0,0.507,0,0.781,0
		C361.106-52.167,360.999-52.792,360.893-53.417z"/>
	<path fill-rule="evenodd" clip-rule="evenodd" fill="#666666" d="M351.638-50.974c0.193,0.146,0.464,0.251,0.563,0.446
		c0.213,0.419,0.543,0.57,0.898,0.357c0.381-0.228,0.434-0.661,0.146-1.019c-0.3-0.371-0.708-0.657-0.988-1.039
		c-0.274-0.372-0.566-0.798-0.638-1.234c-0.13-0.793,0.246-1.29,0.856-1.375c0.884-0.125,1.254,0.124,1.566,1.233
		c-0.352-0.171-0.575-0.278-0.798-0.389c-0.175-0.087-0.394-0.289-0.515-0.241c-0.18,0.071-0.443,0.371-0.404,0.479
		c0.156,0.443,0.332,0.937,0.655,1.252c0.542,0.53,1.091,1.021,1.059,1.844c-0.026,0.695-0.47,1.164-1.104,1.251
		c-0.573,0.078-1.113-0.293-1.337-0.924c-0.05-0.139-0.086-0.281-0.127-0.421C351.526-50.827,351.582-50.9,351.638-50.974z"/>
	<path fill-rule="evenodd" clip-rule="evenodd" fill="#666666" d="M368.709-54.839c0,0.26,0,0.447,0,0.667
		c-0.285,0.023-0.541,0.045-0.856,0.071c0,1.493,0,2.974,0,4.524c-0.257,0.014-0.457,0.025-0.722,0.039c0-1.544,0-3.025,0-4.545
		c-0.224-0.022-0.409,0-0.551-0.068c-0.142-0.068-0.238-0.228-0.354-0.348c0.126-0.113,0.248-0.318,0.378-0.325
		C367.278-54.857,367.958-54.839,368.709-54.839z"/>
	<path fill-rule="evenodd" clip-rule="evenodd" fill="#666666" d="M364.711-48.995c0.162,0.178,0.391,0.33,0.471,0.539
		c0.221,0.56,0.376,1.145,0.557,1.721c0.067-0.015,0.135-0.028,0.201-0.042c0-0.559-0.017-1.119,0.012-1.676
		c0.006-0.153,0.143-0.3,0.22-0.449c0.068,0.135,0.194,0.27,0.198,0.406c0.017,0.896,0.023,1.793-0.005,2.688
		c-0.005,0.163-0.191,0.32-0.293,0.479c-0.11-0.131-0.269-0.245-0.324-0.397c-0.213-0.589-0.394-1.189-0.586-1.786
		c-0.069,0.012-0.139,0.024-0.209,0.037c0,0.698,0,1.396,0,2.095c-0.07,0.023-0.141,0.047-0.209,0.071
		c-0.083-0.141-0.233-0.281-0.236-0.423c-0.021-1.026-0.011-2.051-0.011-3.076C364.567-48.871,364.64-48.933,364.711-48.995z"/>
	<path fill-rule="evenodd" clip-rule="evenodd" fill="#666666" d="M354.274-47.144c0,0.328-0.036,0.662,0.017,0.981
		c0.023,0.146,0.221,0.263,0.34,0.394c0.127-0.12,0.266-0.23,0.381-0.364c0.104-0.122,0.183-0.268,0.272-0.403
		c0.058,0.168,0.201,0.372,0.151,0.496c-0.106,0.258-0.285,0.63-0.488,0.669c-0.287,0.056-0.892-0.131-0.898-0.245
		c-0.063-1.013-0.056-2.035,0.024-3.047c0.009-0.105,0.653-0.263,0.964-0.201c0.179,0.036,0.302,0.454,0.401,0.719
		c0.025,0.068-0.133,0.206-0.207,0.312c-0.071-0.087-0.145-0.173-0.213-0.262c-0.127-0.164-0.252-0.329-0.377-0.494
		c-0.123,0.197-0.306,0.381-0.357,0.596c-0.062,0.271-0.014,0.565-0.014,0.849H354.274z"/>
	<path fill-rule="evenodd" clip-rule="evenodd" fill="#666666" d="M362.949-47.401c0.315,0.052,0.541,0.09,0.767,0.127
		c0.015,0.06,0.029,0.119,0.044,0.179c-0.242,0.093-0.485,0.187-0.77,0.296c0,0.286,0,0.607,0,0.999
		c0.211,0.014,0.425,0.002,0.624,0.051c0.138,0.033,0.254,0.149,0.38,0.228c-0.116,0.067-0.228,0.183-0.348,0.192
		c-0.344,0.026-0.691,0.009-1.084,0.009c0-1.203,0-2.351,0-3.5c0.486,0,0.963,0,1.439,0c0,0.041-0.001,0.08-0.001,0.12
		c-0.334,0.095-0.77,0.097-0.97,0.314C362.863-48.203,362.967-47.769,362.949-47.401z"/>
	<path fill-rule="evenodd" clip-rule="evenodd" fill="#666666" d="M360.459-48.864c0.443,0,0.888,0,1.524,0
		c-0.359,1.021-0.706,2.003-1.042,2.962c0.124,0.078,0.158,0.107,0.197,0.122c0.249,0.095,0.499,0.187,0.75,0.279
		c-0.255,0.06-0.506,0.14-0.763,0.175c-0.21,0.03-0.427,0.007-0.841,0.007c0.397-1.125,0.754-2.134,1.126-3.184
		c-0.42-0.066-0.7-0.111-0.981-0.155C360.439-48.728,360.449-48.796,360.459-48.864z"/>
	<path fill-rule="evenodd" clip-rule="evenodd" fill="#666666" d="M357.826-48.352c-0.307-0.161-0.507-0.266-0.708-0.371
		c0.01-0.041,0.02-0.082,0.029-0.123c0.525,0,1.049,0,1.573,0c-0.82,0.313-0.604,0.987-0.612,1.563
		c-0.007,0.502,0.005,1.004-0.004,1.505c-0.003,0.148-0.051,0.296-0.078,0.444c-0.066-0.003-0.133-0.008-0.2-0.011
		C357.826-46.366,357.826-47.388,357.826-48.352z"/>
	<path fill-rule="evenodd" clip-rule="evenodd" fill="#666666" d="M359.795-47.142c0,0.502,0.014,1.004-0.01,1.504
		c-0.007,0.104-0.152,0.201-0.234,0.301c-0.062-0.096-0.18-0.192-0.182-0.289c-0.014-0.98-0.016-1.962,0-2.943
		c0.002-0.112,0.132-0.222,0.203-0.333c0.075,0.107,0.209,0.211,0.213,0.322C359.81-48.101,359.796-47.621,359.795-47.142z"/>
	<path fill-rule="evenodd" clip-rule="evenodd" fill="#666666" d="M356.26-45.295c-0.062-0.131-0.179-0.262-0.181-0.395
		c-0.016-0.964-0.016-1.929,0.002-2.893c0.002-0.108,0.142-0.213,0.218-0.319c0.068,0.092,0.195,0.183,0.197,0.275
		c0.013,1.086,0.009,2.172,0.009,3.259C356.423-45.343,356.341-45.319,356.26-45.295z"/>
	<path fill="#666666" d="M423.461-53.661c0.158-0.607,0.246-1.245,0.246-1.901c0-4.129-3.355-7.478-7.486-7.478
		c-4.779,0.007-5.417,3.643-5.417,3.643s-2.009-2.48-5.549-2.052c-3.187,0.635-5.271,3.503-5.271,6.428
		c0,0.503,0.073,0.983,0.201,1.453c-2.387,0.871-4.09,3.168-4.09,5.859c0,3.446,2.794,6.244,6.243,6.244h19.24
		c3.454,0,6.247-2.798,6.247-6.244C427.826-50.504,425.99-52.866,423.461-53.661z M420.435-42.714h-8.355
		c0.625-0.63,4.924-5.07,4.924-5.07s0.621-0.616-0.202-0.616c-0.822,0-2.132,0-2.132,0s0-0.357,0-0.902c0-1.683,0-4.963,0-6.217
		c0,0,0.008-0.294-0.37-0.294c-0.382,0-4.708,0-5.239,0c-0.533,0-0.439,0.351-0.439,0.351c0,1.291,0,4.46,0,6.205
		c0,0.607,0,1.004,0,1.004s-1.634,0-2.31,0s-0.055,0.588-0.055,0.588l5.089,4.951h-7.622c-3.002,0-5.425-2.362-5.425-5.275
		c0-2.272,1.477-4.213,3.553-4.949c-0.111-0.397-0.175-0.803-0.175-1.229c0-2.471,1.81-4.893,4.578-5.43
		c3.076-0.36,4.863,2.466,4.863,2.466s0.512-3.803,4.665-3.809c3.588,0,6.195,2.883,6.195,6.371c0,0.554-0.077,1.092-0.213,1.607
		c2.197,0.67,4.101,2.61,4.101,4.973C425.865-45.076,423.438-42.714,420.435-42.714z"/>
	<path fill="#666666" d="M503.588-65.555V-20h8.091v-10.942h3.577V-20h1.491v-10.942h3.577V-20h8.004v-45.555H503.588z
		 M510.018-25.36h-3.576v-5.582h3.576V-25.36z M510.018-32.794h-3.576v-5.582h3.576V-32.794z M510.018-40.574h-3.576v-5.582h3.576
		V-40.574z M510.018-48.858h-3.576v-5.581h3.576V-48.858z M510.15-56.379h-3.576v-5.581h3.576V-56.379z M515.256-32.794h-3.577
		v-5.582h3.577V-32.794z M515.256-40.574h-3.577v-5.582h3.577V-40.574z M515.256-48.858h-3.576v-5.581h3.576V-48.858z
		 M515.389-56.379h-3.576v-5.581h3.576V-56.379z M520.324-32.794h-3.577v-5.582h3.577V-32.794z M520.324-40.574h-3.577v-5.582h3.577
		V-40.574z M520.324-48.858h-3.577v-5.581h3.577V-48.858z M520.457-56.379h-3.576v-5.581h3.576V-56.379z M525.475-25.36h-3.575
		v-5.582h3.575V-25.36z M525.475-32.794h-3.575v-5.582h3.575V-32.794z M525.475-40.574h-3.575v-5.582h3.575V-40.574z
		 M525.476-48.858h-3.576v-5.581h3.576V-48.858z M525.608-56.379h-3.576v-5.581h3.576V-56.379z"/>
	<g>
		<path fill="#666666" d="M461.227-48.011v0.101c0.421,1.435,1.144,2.534,2.167,3.294c1.024,0.761,2.287,1.142,3.79,1.142
			c1.713,0,3.421-0.531,5.124-1.594v3.273c-1.761,0.918-3.799,1.378-6.115,1.378c-0.87,0-1.693-0.072-2.469-0.215
			c-0.774-0.144-1.494-0.359-2.16-0.646c-0.664-0.287-1.271-0.644-1.822-1.069c-0.55-0.426-1.044-0.917-1.479-1.471
			c-0.436-0.555-0.854-1.275-1.256-2.161c-0.402-0.885-0.603-1.528-0.603-1.93v-0.101h-2.067l0.56-2.669h1.148
			c-0.02-0.172-0.028-0.426-0.028-0.761l0.028-0.948v-0.086h-1.708l0.56-2.67h1.536v-0.086c0.632-2.555,1.764-4.445,3.395-5.669
			c1.632-1.225,3.754-1.837,6.365-1.837c2.144,0,4.11,0.278,5.9,0.833v3.459c-2.134-0.919-3.967-1.378-5.498-1.378
			c-2.842,0-4.65,1.559-5.426,4.679h8.698l-0.53,2.67h-8.584v0.086c-0.019,0.182-0.029,0.459-0.029,0.833l0.029,0.79v0.086h8.254
			l-0.56,2.669H461.227z"/>
	</g>
	<g>
		<path fill="#494949" d="M694.842-43.258c-0.5,0.032-0.721,0.032-1.094,0.032c-0.314,0-0.721,0-1.176-0.032
			c-0.172,0.626-0.467,1.518-0.952,2.847c-0.406,1.126-0.657,2.049-0.783,2.957h-0.046c-0.203-1.143-0.361-1.611-0.861-2.957
			c-0.439-1.126-0.799-2.065-1.063-2.847c-0.517,0.032-0.673,0.032-1.142,0.032c-0.422,0-0.924,0-1.156-0.032
			c0.092,0.516,0.248,0.984,1.859,4.458c0.813,1.753,1.127,2.55,1.409,3.113c-0.268,0.423-0.423,0.75-0.781,1.58
			c-0.313,0.72-0.55,1.235-0.908,1.907c0.547-0.03,0.781-0.03,1.328-0.03c0.394,0,0.83,0.015,1.079,0.03
			c0.377-1.078,0.737-1.986,1.738-4.535C693.887-40.803,694.671-42.586,694.842-43.258 M686.003-41.209
			c-0.029-0.375-0.046-0.579-0.046-0.923c0-0.328,0-0.656,0.046-1.079c-0.437,0.062-1.892,0-2.314,0.142l-0.046-0.031
			c0.14-0.626,0.078-1.236,0.155-1.878c-0.578,0.125-1.296,0.171-1.894,0.188c0.032,0.469,0.032,1.394,0.143,1.69l-0.032,0.015
			c-0.374-0.11-1.282-0.077-1.768-0.125c0.032,0.297,0.046,0.625,0.046,1.033c0,0.421-0.014,0.578-0.046,0.969
			c0.394-0.046,1.188-0.031,1.689-0.203l0.046,0.032c-0.139,0.906-0.248,2.69-0.248,3.582c0,1.877,0.703,2.737,2.455,2.737
			c0.625,0,1.268-0.079,1.784-0.22c-0.033-0.328-0.079-0.688-0.079-0.985c0-0.312,0-0.578,0.014-0.812
			c-0.265,0.045-0.561,0.062-0.891,0.062c-1.143,0-1.281-0.188-1.281-1.455c0-0.876-0.094-2.377-0.188-2.894l0.045-0.062
			C684.189-41.24,685.364-41.287,686.003-41.209 M677.383-39.771c-0.499-0.062-1.125-0.093-1.703-0.093
			c-0.642,0-1.282,0.031-1.878,0.109c0-1.314,0.642-1.924,1.895-1.924C676.946-41.678,677.383-41.162,677.383-39.771
			 M679.324-38.503v-0.641c0-3.05-1.299-4.411-3.598-4.411c-2.394,0-3.863,1.767-3.863,4.301c0,2.676,1.609,4.239,4.191,4.239
			c1.25,0,2.206-0.282,2.754-0.72c-0.109-0.483-0.156-1.36-0.156-1.611c-0.609,0.346-1.55,0.471-2.533,0.471
			c-1.346,0-2.143-0.564-2.269-1.722c0.249,0.062,0.905,0.094,1.484,0.094H679.324z M670.095-43.258
			c-0.39,0.016-0.72,0.032-1.127,0.032c-0.469,0-0.671-0.017-1.094-0.032c0.032,1.267,0.078,2.784,0.078,4.192
			c0,1.141-0.032,2.534-0.032,3.864c0.408-0.016,0.643-0.031,1.048-0.031c0.407,0,0.674,0.016,1.081,0.031
			c-0.017-1.347-0.049-2.724-0.049-3.864C670-40.474,670.049-41.881,670.095-43.258 M670.252-44.837
			c-0.031-0.423-0.031-0.595-0.031-0.986c0-0.391,0.017-0.579,0.031-0.954c-0.391,0.017-0.767,0.031-1.299,0.031
			c-0.516,0-0.877-0.015-1.281-0.031c0.031,0.312,0.031,0.563,0.031,0.954c0,0.392,0,0.578-0.018,0.986
			c0.438-0.017,0.721-0.032,1.282-0.032C669.531-44.869,669.876-44.854,670.252-44.837 M666.324-42.617
			c-0.533-0.641-1.298-0.891-2.346-0.891c-2.582,0-4.178,1.799-4.178,4.191c0,2.456,1.596,4.302,4.131,4.302
			c0.905,0,1.719-0.297,2.268-0.828c-0.109-0.547-0.171-1.362-0.171-1.816c-0.563,0.471-1.175,0.659-1.987,0.659
			c-1.44,0-2.271-0.908-2.271-2.285c0-1.346,0.815-2.235,2.271-2.235c0.938,0,1.454,0.172,2.032,0.734
			C666.121-41.537,666.199-42.209,666.324-42.617 M656.516-39.3c0,1.392-0.688,2.471-2.064,2.471s-2.065-1.079-2.065-2.471
			c0-1.472,0.706-2.331,2.08-2.331C655.843-41.631,656.516-40.771,656.516-39.3 M658.456-39.3c0-2.597-1.644-4.255-4.005-4.255
			c-2.363,0-4.004,1.658-4.004,4.223c0,2.612,1.58,4.412,4.004,4.412S658.456-36.72,658.456-39.3 M649.056-37.659
			c0-1.281-0.642-1.907-2.128-2.173c-1.486-0.28-1.597-0.391-1.597-0.893c0-0.562,0.438-0.844,1.55-0.844
			c0.798,0,1.438,0.094,1.938,0.391c0.032-0.656,0.096-1.329,0.221-1.705c-0.576-0.469-1.406-0.625-2.266-0.625
			c-2.19,0-3.396,1.048-3.396,2.674c0,1.22,0.578,1.941,2.189,2.223c1.406,0.249,1.565,0.374,1.565,0.875
			c0,0.596-0.313,0.845-1.345,0.845c-0.738,0-1.408-0.142-1.988-0.39c-0.017,0.547-0.061,1.188-0.156,1.704
			c0.547,0.39,1.406,0.562,2.205,0.562C647.851-35.015,649.056-35.969,649.056-37.659 M636.416-40.974
			c-0.046,0.391-0.095,1.017-0.095,1.485c0,0.58,0.032,1.049,0.049,1.22c-0.282,0.439-0.798,0.705-1.659,0.705
			c-1.251,0-1.925-0.735-1.925-1.987c0-1.221,0.532-1.924,1.846-1.924C635.524-41.475,636.058-41.303,636.416-40.974
			 M638.404-43.258c-0.377,0.016-0.565,0.032-0.799,0.032c-0.22,0-0.486-0.017-0.783-0.032c-0.078,0.265-0.141,0.531-0.203,0.955
			l-0.047,0.029c-0.391-0.781-1.018-1.188-2.158-1.188c-2.207,0-3.614,1.487-3.614,3.911c0,2.253,1.502,3.848,3.644,3.848
			c1.019,0,1.676-0.641,1.927-1.267l0.029,0.016c-0.015,0.142-0.046,0.392-0.046,0.641v0.376c0,1.394-0.625,1.972-2.097,1.972
			c-0.626,0-1.204-0.062-1.72-0.22c-0.016,0.579-0.047,1.126-0.141,1.752c0.595,0.297,1.282,0.407,1.955,0.407
			c2.33,0,3.975-1.205,3.975-4.177v-3.302C638.326-40.88,638.355-41.991,638.404-43.258 M627.203-37.312
			c-0.312,0.438-0.735,0.641-1.486,0.641c-0.86,0-1.222-0.282-1.222-0.923c0-0.688,0.439-0.923,1.456-0.987
			c0.517-0.029,0.939-0.029,1.252-0.093V-37.312z M629.346-35.201c-0.127-0.72-0.188-1.439-0.188-2.111v-2.957
			c0-2.27-1.064-3.254-3.427-3.254c-1.281,0-2.284,0.358-2.862,1.174c0.127,0.423,0.174,1.001,0.204,1.625l0.03,0.031
			c0.424-0.547,1.252-0.891,2.489-0.891c1.22,0,1.61,0.219,1.61,1.204v0.406h-0.391c-2.816,0-4.208,0.688-4.208,2.582
			c0,1.549,1.017,2.44,2.659,2.44c1.252,0,1.829-0.532,2.158-1.534h0.062c0.017,0.423,0.094,0.892,0.173,1.284
			c0.377-0.016,0.672-0.031,0.877-0.031C628.799-35.232,629.095-35.217,629.346-35.201 M618.975-37.312
			c-0.312,0.438-0.735,0.641-1.484,0.641c-0.861,0-1.221-0.282-1.221-0.923c0-0.688,0.438-0.923,1.455-0.987
			c0.515-0.029,0.938-0.029,1.25-0.093V-37.312z M621.117-35.201c-0.124-0.72-0.187-1.439-0.187-2.111v-2.957
			c0-2.27-1.064-3.254-3.425-3.254c-1.285,0-2.284,0.358-2.863,1.174c0.125,0.423,0.172,1.001,0.204,1.625l0.03,0.031
			c0.422-0.547,1.252-0.891,2.486-0.891c1.221,0,1.611,0.219,1.611,1.204v0.406h-0.391c-2.814,0-4.209,0.688-4.209,2.582
			c0,1.549,1.019,2.44,2.662,2.44c1.25,0,1.828-0.532,2.158-1.534h0.062c0.015,0.423,0.095,0.892,0.173,1.284
			c0.375-0.016,0.671-0.031,0.875-0.031C620.572-35.232,620.868-35.217,621.117-35.201 M613.625-43.258
			c-0.453,0.047-0.609,0.032-1,0.032c-0.422,0-0.564,0-1.08-0.032c-0.141,0.735-0.469,1.769-0.703,2.706
			c-0.268,1.063-0.517,2.237-0.658,3.191h-0.047c-0.156-1.002-0.5-2.159-0.906-3.442c-0.393-1.188-0.673-2.002-0.861-2.455
			c-0.172,0.016-0.53,0.032-0.827,0.032c-0.298,0-0.659-0.017-0.83-0.032c-0.202,0.47-0.454,1.251-0.845,2.455
			c-0.391,1.269-0.752,2.504-0.907,3.442h-0.032c-0.14-0.923-0.374-1.972-0.671-3.191c-0.235-0.971-0.548-1.955-0.704-2.706
			c-0.424,0.032-0.674,0.032-1.112,0.032c-0.406,0-0.53,0-1.017-0.032c0,0.328,0.33,1.486,1.316,4.536
			c0.499,1.533,0.843,2.613,1.078,3.521c0.312-0.016,0.611-0.031,0.938-0.031c0.281,0,0.735,0.016,0.892,0.031
			c0.126-0.282,0.784-1.815,1.204-3.161c0.299-0.954,0.563-1.846,0.642-2.752h0.049c0.093,0.906,0.342,1.798,0.655,2.721
			c0.454,1.347,1.096,2.927,1.205,3.192c0.156-0.016,0.61-0.031,0.955-0.031c0.28,0,0.876,0.031,0.876,0.031
			c0.187-0.846,0.517-1.846,1.062-3.505C613.25-41.74,613.625-42.977,613.625-43.258"/>
		<path fill="#494949" d="M573.978-68.051c-12.139,0-21.978,9.84-21.978,21.977c0,12.138,9.839,21.978,21.978,21.978
			c12.136,0,21.976-9.84,21.976-21.978C595.953-58.211,586.113-68.051,573.978-68.051z M578.531-35.709l-0.045-6.95
			c-0.049-2.584-1.992-4.746-4.531-4.746s-4.486,2.162-4.486,4.746v6.95h-8.242l1.403-13.808l4.03-8.45l1.723,6.951l5.572-9.396
			l5.66,9.396l1.637-6.951l4.072,8.45l1.404,13.808H578.531z"/>
	</g>
	<g>
		<g>
			<path fill="#666666" d="M708.918-66.086v2.955c0.226-0.049,4.789-1.001,8.376,1.528V-67L708.918-66.086z"/>
			<polygon fill="#666666" points="708.918,-45.356 717.294,-46.271 717.294,-51.639 708.918,-51.071 			"/>
			<path fill="#666666" d="M708.918-62.24v10.051l8.376-0.569v-7.677C713.933-63.241,708.973-62.252,708.918-62.24z"/>
			<path fill="#666666" d="M718.515-59.183v6.564l0.047-0.229l8.33,1.73v-3.625c-0.319,0.017-0.626,0.027-0.91,0.027
				C722.455-54.716,721.289-55.945,718.515-59.183z"/>
			<polygon fill="#666666" points="718.515,-46.271 726.892,-43.529 726.892,-49.979 718.515,-51.719 			"/>
			<path fill="#666666" d="M718.923-60.113c3.161,3.698,4.008,4.682,7.969,4.466v-8.612L718.515-67v6.455
				c0.116,0.121,0.236,0.232,0.347,0.36L718.923-60.113z"/>
			<polygon fill="#666666" points="727.938,-43.529 736.318,-45.356 736.318,-51.614 727.938,-49.962 			"/>
			<path fill="#666666" d="M736.318-52.753v-4.318l-1.211,0.33c0.009,0.088,0.027,0.177,0.027,0.27c0,1.415-1.146,2.564-2.563,2.564
				c-1.038,0-1.93-0.623-2.329-1.509l-2.184,0.593c-0.042,0.004-0.078,0.006-0.12,0.009v3.716L736.318-52.753z"/>
			<path fill="#666666" d="M734.853-57.617l1.344-0.368l0.122-0.016v-8.085l-8.38,1.828v8.527l2.088-0.569
				c-0.005-0.058-0.018-0.109-0.018-0.17c0-1.416,1.147-2.561,2.562-2.561C733.572-59.032,734.429-58.454,734.853-57.617z"/>
			<path fill="#666666" d="M717.294-61.604v1.168c0.307,0.254,0.6,0.526,0.873,0.845l0.061,0.074c0.1,0.116,0.193,0.221,0.287,0.334
				v-1.362C718.127-60.95,717.72-61.304,717.294-61.604z"/>
			<path fill="#666666" d="M726.892-55.647v0.904c0.329-0.016,0.68-0.041,1.047-0.072v-0.917l-0.039,0.011
				C727.539-55.688,727.209-55.666,726.892-55.647z"/>
			<circle fill="#666666" cx="732.61" cy="-56.475" r="1.24"/>
		</g>
	</g>
	<g>
		<path fill="#666666" d="M708.977-38.07c0-0.773-0.029-1.379-0.059-1.983h1.166l0.059,1.195h0.047
			c0.407-0.696,1.09-1.348,2.316-1.348c0.985,0,1.742,0.605,2.06,1.468h0.029c0.23-0.424,0.53-0.726,0.833-0.954
			c0.44-0.333,0.911-0.515,1.607-0.515c0.982,0,2.424,0.636,2.424,3.18v4.301h-1.305v-4.134c0-1.423-0.528-2.256-1.59-2.256
			c-0.772,0-1.348,0.561-1.589,1.197c-0.062,0.196-0.107,0.422-0.107,0.665v4.528h-1.301v-4.392c0-1.166-0.518-1.999-1.529-1.999
			c-0.819,0-1.441,0.667-1.654,1.333c-0.073,0.181-0.104,0.424-0.104,0.65v4.408h-1.303V-38.07z"/>
		<path fill="#666666" d="M726.764-34.482c0,0.636,0.028,1.258,0.104,1.757h-1.195l-0.107-0.923h-0.045
			c-0.407,0.575-1.197,1.09-2.24,1.09c-1.484,0-2.241-1.045-2.241-2.105c0-1.772,1.576-2.741,4.405-2.727v-0.15
			c0-0.591-0.167-1.697-1.665-1.682c-0.696,0-1.408,0.197-1.923,0.545l-0.302-0.893c0.604-0.378,1.499-0.636,2.422-0.636
			c2.24,0,2.787,1.529,2.787,2.983V-34.482z M725.477-36.465c-1.453-0.03-3.105,0.227-3.105,1.649c0,0.88,0.575,1.273,1.242,1.273
			c0.97,0,1.59-0.606,1.803-1.227c0.044-0.151,0.061-0.303,0.061-0.424V-36.465z"/>
		<path fill="#666666" d="M728.914-37.662c0-0.939-0.028-1.696-0.058-2.392h1.182l0.074,1.256h0.031
			c0.53-0.894,1.408-1.408,2.604-1.408c1.786,0,3.12,1.5,3.12,3.71c0,2.635-1.621,3.938-3.347,3.938
			c-0.969,0-1.817-0.424-2.256-1.151h-0.032v3.982h-1.318V-37.662z M730.232-35.708c0,0.196,0.017,0.378,0.061,0.545
			c0.242,0.923,1.046,1.559,2.002,1.559c1.407,0,2.223-1.152,2.223-2.832c0-1.454-0.771-2.71-2.179-2.71
			c-0.908,0-1.772,0.637-2.017,1.635c-0.042,0.167-0.09,0.364-0.09,0.53V-35.708z"/>
	</g>
	<path fill="#999999" d="M7.832,39.615C4.379,41.328,2,44.88,2,48.996c0,5.785,4.689,10.475,10.475,10.475
		c5.786,0,10.477-4.689,10.477-10.475c0-4.297-2.59-7.985-6.291-9.602"/>
	<path fill="none" stroke="#666666" stroke-miterlimit="10" d="M16.66,39.395V6.414C16.66,3.977,14.684,2,12.246,2
		S7.832,3.977,7.832,6.414v33.201C4.379,41.328,2,44.88,2,48.996c0,5.785,4.689,10.475,10.475,10.475
		c5.786,0,10.477-4.689,10.477-10.475C22.951,44.699,20.361,41.011,16.66,39.395z"/>
</g>
</svg>
